<svg xmlns="http://www.w3.org/2000/svg" viewBox="0 0 1024 1024">
  <path d="M 504.627 104.468 C 482.707 112.282, 481.377 141.790, 502.500 151.647 C 507.439 153.952, 507.930 153.981, 542.679 153.990 C 573.317 153.999, 578.060 154.203, 579.429 155.571 C 580.794 156.937, 581 161.499, 581 190.390 C 581 233.896, 582.907 239.925, 598.089 244.434 C 604.849 246.441, 702.603 246.798, 709.142 244.839 C 727.206 239.427, 731.936 211.935, 716.701 200.899 C 709.102 195.394, 705.915 195, 668.941 195 C 642.371 195, 635.015 194.723, 634.157 193.689 C 633.198 192.534, 632.718 161.229, 633.217 132.460 C 633.421 120.686, 627.537 110.440, 617.780 105.578 C 611.562 102.479, 512.921 101.512, 504.627 104.468 M 407.399 121.906 C 392.168 128.824, 389.993 136.816, 391.053 182 C 391.472 199.875, 391.569 219.450, 391.270 225.500 C 390.084 249.431, 401.634 259.520, 429.500 258.894 C 459.360 258.225, 482.797 258.940, 484.429 260.571 C 485.797 261.940, 486.001 266.679, 486.006 297.321 C 486.012 335.215, 486.226 337.140, 491.277 344.641 C 501.644 360.035, 524.991 357.790, 534.338 340.500 C 536.465 336.564, 536.505 335.653, 536.784 283.623 C 537.209 204.389, 539.594 207.574, 479.800 207.527 C 452.647 207.506, 444.817 207.217, 443.800 206.197 C 442.786 205.181, 442.500 197.691, 442.500 172.197 C 442.500 141.147, 442.395 139.273, 440.412 134.989 C 434.539 122.302, 419.581 116.374, 407.399 121.906 M 215.672 196.433 C 195.930 201.739, 189.735 224.735, 204.162 239.162 C 210.567 245.567, 213.601 245.998, 252.432 246.015 C 272.125 246.024, 287.133 246.430, 288 246.978 C 289.280 247.786, 289.573 253.918, 290 288.712 C 290.785 352.789, 286.808 349.500, 363.500 349.500 C 414.500 349.500, 414.500 349.500, 420.230 346.686 C 437.307 338.300, 439.947 315.570, 425.153 304.286 C 417.907 298.760, 415.857 298.517, 379 298.829 C 350.736 299.068, 345.187 298.882, 343.500 297.638 C 341.571 296.216, 341.482 294.703, 341 254.832 C 340.235 191.590, 344.295 194.963, 269.068 195.067 C 232.591 195.118, 219.298 195.458, 215.672 196.433 M 794.748 196.366 C 787.337 199.131, 780.454 205.982, 778.138 212.899 C 777.371 215.191, 777 228.102, 777 252.527 C 777 281.918, 776.742 288.969, 775.635 289.888 C 774.685 290.676, 763.192 291.094, 737.885 291.260 C 681.569 291.631, 683.773 288.886, 683.224 359.366 C 682.814 411.995, 683.216 417.131, 688.345 424.738 C 697.133 437.770, 716.792 438.112, 727.930 425.427 C 733.356 419.247, 733.395 418.966, 733.966 381.353 C 734.460 348.835, 734.640 346.051, 736.373 344.138 C 738.189 342.133, 739.316 342.063, 773.873 341.786 C 815.940 341.448, 818.637 340.718, 825.733 327.734 C 827.916 323.738, 828.993 225.099, 826.959 215.304 C 824.022 201.155, 807.674 191.543, 794.748 196.366 M 213.821 298.395 C 197.225 302.864, 195.005 309.406, 194.985 353.909 C 194.976 372.384, 194.572 388.127, 194.087 388.893 C 192.599 391.243, 184.618 391.878, 155.799 391.940 C 118.774 392.020, 114.024 393.323, 106.521 405.455 C 103.249 410.747, 101.096 506.965, 104.014 517.500 C 109.402 536.949, 133.068 542.499, 146.852 527.545 C 153.605 520.219, 154 517.534, 154 479.018 C 154 454.204, 154.314 445.086, 155.200 444.200 C 156.087 443.313, 165.397 443, 190.884 443 C 230.242 443, 230.044 443.037, 239.075 434.015 C 246.010 427.088, 246 427.180, 246 369.739 C 246 311.148, 246.103 311.975, 237.888 304.589 C 230.316 297.781, 223.047 295.911, 213.821 298.395 M 600.190 303.479 C 594.583 305.229, 589.877 308.506, 587.053 312.627 C 582.264 319.617, 582.090 321.258, 582.044 360.095 C 582.003 394.246, 581.878 396.801, 580.171 398.345 C 578.547 399.815, 574.647 400, 545.353 400 C 503.608 400, 497.888 401.461, 491.883 413.660 C 488.279 420.980, 488.132 490.943, 491.706 497.624 C 500.650 514.345, 525.181 515.822, 535.066 500.235 C 539.464 493.301, 539.988 490.175, 539.994 470.872 C 539.999 457.951, 540.335 452.967, 541.256 452.202 C 542.057 451.537, 555.363 451.034, 578.006 450.813 C 635.730 450.248, 633.142 453.516, 633.057 381.284 C 632.997 329.789, 632.560 322.854, 628.901 315.296 C 624.185 305.553, 610.970 300.114, 600.190 303.479 M 805 390.962 C 775.533 392.162, 773.559 395.663, 773.894 446.120 C 774.093 476.052, 773.938 479.919, 772.487 481.370 C 770.636 483.221, 768.814 483.296, 720 483.510 C 693.635 483.626, 688.965 483.876, 685.554 485.353 C 665.699 493.952, 664.357 521.132, 683.288 531.249 C 687.496 533.498, 687.561 533.500, 744.385 533.782 C 828.755 534.200, 824.196 537.257, 825 479.712 C 825.424 449.364, 825.728 443.780, 827 442.977 C 827.843 442.445, 839.919 442.024, 854.572 442.015 C 884.540 441.998, 886.958 441.540, 894.916 434.386 C 909.230 421.516, 905.508 400.389, 887.500 392.301 C 883.177 390.359, 837.862 389.624, 805 390.962 M 322.966 395.003 C 302.659 397.457, 292.150 414.574, 300.793 431.118 C 307.486 443.930, 311.703 444.995, 355.799 445.015 C 375.236 445.024, 390.135 445.431, 391 445.977 C 392.228 446.751, 392.598 450.790, 393.039 468.211 C 393.534 487.760, 393.766 489.888, 395.877 494.247 C 403.581 510.157, 424.435 513.660, 436.948 501.147 C 443.665 494.430, 443.870 493.034, 444.091 452.433 C 444.415 392.980, 446.265 394.569, 376.500 394.357 C 350.650 394.278, 326.560 394.569, 322.966 395.003 M 886.355 489.447 C 871.641 495.849, 870.022 501.222, 870.010 543.679 C 870.001 575.496, 869.837 579.020, 868.294 580.563 C 866.740 582.117, 863.941 582.227, 836.992 581.795 C 794.476 581.113, 788.481 582.522, 781.201 594.906 C 778.196 600.017, 776.298 696.281, 778.960 708.557 C 782.628 725.469, 805.921 732.319, 819.689 720.534 C 828.290 713.172, 828.432 712.416, 829 671.212 C 829.421 640.643, 829.733 634.781, 830.979 634.012 C 831.792 633.510, 846.455 633.095, 863.563 633.091 C 906.202 633.080, 915.840 630.041, 919.928 615.321 C 921.400 610.020, 921.382 513.881, 919.908 507.006 C 916.892 492.941, 899.383 483.778, 886.355 489.447 M 217.707 491.094 C 201.531 494.901, 199 502.396, 199 546.482 C 199 570.907, 198.685 579.915, 197.800 580.800 C 196.927 581.673, 189.360 582.002, 170.050 582.006 C 141.294 582.012, 138.645 582.372, 131.354 587.277 C 113.637 599.196, 117.648 625.272, 138.155 631.486 C 151.580 635.553, 226.807 634.660, 235.410 630.331 C 248.648 623.670, 249.448 620.806, 249.797 578.834 C 250.047 548.757, 250.326 542.974, 251.579 541.934 C 252.710 540.996, 262.234 540.753, 291.479 540.917 C 334.843 541.161, 338.456 540.725, 345.900 534.353 C 361.883 520.673, 355.446 494.809, 335.114 491.007 C 328.413 489.754, 223.067 489.832, 217.707 491.094 M 596.125 504.643 C 590.643 506.657, 584.421 512.793, 581.758 518.815 C 578.343 526.535, 578.458 605.090, 581.896 612.757 C 584.447 618.448, 589.268 623.301, 594.927 625.875 C 601.574 628.898, 704.940 628.268, 711.239 625.166 C 730.603 615.630, 730.952 590.628, 711.854 581.085 C 705.681 578, 705.681 578, 670.063 578 C 640.223 578, 634.102 577.760, 632.330 576.519 C 630.288 575.088, 630.202 574.141, 629.800 548.769 C 629.351 520.403, 629.074 518.786, 623.546 512.230 C 616.969 504.430, 605.412 501.233, 596.125 504.643 M 407.627 565.468 C 401.778 567.553, 396.805 572.090, 393.783 578.098 C 390.732 584.165, 389.029 693.715, 391.832 703.596 C 396.754 720.944, 419.447 728.326, 432.534 716.836 C 441.582 708.891, 441.441 709.737, 442 660.332 C 442.275 636.040, 442.874 615.790, 443.331 615.332 C 443.789 614.874, 460.664 614.274, 480.831 613.999 C 521.364 613.444, 521.884 613.365, 528.838 606.699 C 541.694 594.376, 538.805 575.056, 522.919 567.117 C 515.804 563.562, 416.942 562.148, 407.627 565.468 M 307.969 590.498 C 291.634 595.671, 289.028 603.603, 289.012 648.191 C 289.003 673.237, 288.708 681.070, 287.750 681.687 C 287.063 682.129, 270.496 682.493, 250.936 682.496 C 192.803 682.503, 194.723 679.858, 195.199 759.253 C 195.542 816.547, 195.243 814.437, 204.150 822.445 C 212.928 830.337, 225.153 830.817, 235.670 823.680 C 245.786 816.815, 245.901 816.224, 245.956 770.872 C 245.993 741.110, 246.237 735.048, 247.441 734.049 C 248.491 733.178, 258.604 732.805, 284.691 732.676 C 327.532 732.465, 330.658 731.574, 337.483 717.624 C 341.612 709.185, 340.995 610.044, 336.770 602.855 C 330.442 592.092, 318.761 587.080, 307.969 590.498 M 505.332 665.828 C 486.952 672.262, 486.014 675.800, 486.006 738.701 C 485.997 812.643, 484.465 810.698, 542.274 810.176 C 575.173 809.879, 578.339 809.997, 580.090 811.581 C 581.898 813.218, 582 815.106, 582 846.977 C 582 884.486, 582.276 886.458, 588.557 893.795 C 601.533 908.955, 626.945 902.547, 632.262 882.775 C 635.200 871.850, 633.913 781.635, 630.731 775.410 C 623.311 760.896, 620.189 760.003, 576.790 759.985 C 555.702 759.976, 539.872 759.573, 539 759.022 C 537.725 758.217, 537.425 752.414, 537 720.288 C 536.517 683.810, 536.424 682.358, 534.309 678.405 C 528.450 667.457, 516.052 662.075, 505.332 665.828 M 606.951 673.362 C 583.617 679.655, 582.272 713.658, 605.089 720.434 C 609.426 721.722, 616.425 722, 644.490 722 C 671.609 722, 678.998 722.278, 680.469 723.354 C 682.217 724.632, 682.325 727.041, 682.410 766.604 C 682.519 817.403, 683.152 819.734, 698.750 826.801 C 703.759 829.071, 803.499 829.407, 810.868 827.180 C 828.207 821.939, 833.474 798.842, 820.351 785.597 C 814.406 779.597, 813.906 779.528, 773.854 779.194 C 738.399 778.898, 737.149 778.822, 735.354 776.841 C 733.628 774.935, 733.466 771.886, 733 732.647 C 732.242 668.743, 736.093 671.964, 660.568 672.067 C 625.133 672.116, 610.236 672.476, 606.951 673.362 M 339.500 778.873 C 303.982 779.764, 295.006 785.403, 296.175 806.089 C 297.272 825.508, 306.286 828.985, 355.550 828.994 C 379.138 828.998, 387.917 829.317, 388.800 830.200 C 389.686 831.086, 390 840.205, 390 865.022 C 390 906.888, 391.289 911.532, 404.753 918.162 C 412.295 921.876, 514.558 921.830, 522.794 918.108 C 541.784 909.527, 542.657 883.362, 524.254 874.325 C 518.500 871.500, 518.500 871.500, 480.712 871 C 448.586 870.575, 442.783 870.275, 441.978 869 C 441.431 868.134, 441.015 852.923, 440.993 833 C 440.931 775.248, 442.867 776.281, 339.500 778.873" fill="#C9A844" fill-rule="nonzero"/>
</svg>
