<svg xmlns="http://www.w3.org/2000/svg" viewBox="0 0 1024 1024">
	<path d="M 512.500 103.757 C 506.566 104.928, 503 106.191, 503.471 106.953 C 503.764 107.426, 503.215 107.613, 502.251 107.368 C 497.821 106.242, 488.288 118.723, 487.584 126.572 C 487.175 131.133, 489.101 138.175, 490.600 137.600 C 491.341 137.316, 491.627 137.952, 491.376 139.325 C 491.097 140.849, 491.417 140.603, 492.444 138.500 C 493.457 136.427, 493.924 136.061, 493.955 137.316 C 493.980 138.314, 493.558 139.957, 493.018 140.966 C 492.289 142.328, 492.418 142.946, 493.518 143.369 C 494.333 143.681, 495 144.517, 495 145.226 C 495 145.935, 497.137 147.861, 499.750 149.507 L 504.500 152.500 542.500 152.804 C 563.400 152.972, 580.839 153.446, 581.254 153.859 C 581.669 154.271, 582.125 171.234, 582.268 191.554 C 582.526 228.243, 582.544 228.530, 584.882 232.778 C 586.177 235.131, 588.118 237.528, 589.194 238.104 C 590.271 238.680, 592.059 240.059, 593.168 241.168 C 594.321 242.321, 595.982 242.977, 597.045 242.699 C 598.067 242.431, 599.076 242.727, 599.285 243.356 C 599.760 244.779, 706.401 245.002, 709.500 243.586 C 710.600 243.084, 711.760 242.634, 712.077 242.586 C 715.290 242.106, 722.663 233.528, 720.834 232.398 C 720.171 231.987, 719.963 232.131, 720.340 232.741 C 720.697 233.318, 720.316 234.048, 719.494 234.364 C 717.833 235.001, 717.427 233.472, 719 232.500 C 719.550 232.160, 720.029 230.896, 720.063 229.691 L 720.127 227.500 721.031 229.750 C 722.151 232.535, 723.371 232.743, 722.500 230 C 722.136 228.853, 722.320 228, 722.933 228 C 723.520 228, 723.993 227.213, 723.985 226.250 C 723.971 224.740, 723.824 224.706, 722.909 226 C 721.966 227.333, 721.893 227.333, 722.257 226 C 722.482 225.175, 723.304 224.499, 724.083 224.497 C 725.131 224.495, 725.437 223.323, 725.259 219.997 C 724.910 213.495, 724.126 210.804, 722.816 211.614 C 722.123 212.042, 721.969 211.858, 722.415 211.137 C 723.582 209.249, 717.236 202, 714.416 202 C 713.043 202, 712 201.412, 712 200.638 C 712 199.777, 711.077 199.376, 709.495 199.550 C 707.985 199.716, 707.242 199.418, 707.623 198.801 C 708.880 196.767, 705.444 196.187, 691.344 196.053 C 680.226 195.948, 676.997 196.207, 676.985 197.208 C 676.973 198.229, 676.803 198.238, 676.176 197.250 C 675.576 196.306, 670.311 196.043, 654.669 196.178 C 642 196.287, 633.570 195.970, 632.961 195.361 C 632.337 194.737, 631.968 181.213, 631.973 159.151 C 631.980 126.084, 631.859 123.680, 629.993 119.718 C 627.265 113.926, 618.484 104.454, 620.276 109.235 C 620.841 110.744, 620.668 110.810, 618.953 109.739 C 617.868 109.061, 617.435 108.355, 617.990 108.170 C 618.546 107.985, 619 107.346, 619 106.750 C 619 106.154, 618.738 105.928, 618.418 106.248 C 618.099 106.568, 616.307 106.190, 614.436 105.409 C 611.213 104.062, 518.560 102.561, 512.500 103.757 M 501.638 110.500 C 501.322 111.325, 501.451 112, 501.924 112 C 502.398 112, 503.045 111.325, 503.362 110.500 C 503.678 109.675, 503.549 109, 503.076 109 C 502.602 109, 501.955 109.675, 501.638 110.500 M 411.464 121.326 C 407.143 122.997, 403.477 125.819, 404.447 126.727 C 404.902 127.152, 405.475 126.938, 405.720 126.250 C 405.966 125.563, 406.634 125, 407.206 125 C 407.855 125, 407.798 125.538, 407.056 126.433 C 405.712 128.052, 401.821 128.151, 402.724 126.542 C 403.046 125.969, 401.902 126.810, 400.183 128.410 C 397.294 131.099, 397.187 131.423, 398.778 132.663 C 400.237 133.800, 400.253 133.919, 398.879 133.445 C 394.090 131.791, 390.457 143.188, 391.386 156.950 C 391.740 162.203, 392.040 182.704, 392.053 202.508 C 392.075 239.544, 392.515 243.987, 396.082 243.179 C 397.200 242.925, 397.242 243.120, 396.280 244.099 C 394.492 245.918, 403.497 254.662, 405.471 253.024 C 406.475 252.191, 407.013 252.212, 407.565 253.106 C 408.067 253.917, 407.851 254.071, 406.905 253.580 C 406.132 253.180, 406.386 253.569, 407.469 254.446 C 411.415 257.641, 416.838 258.071, 451.223 257.914 L 485.471 257.757 486.167 261.129 C 486.727 263.840, 487.348 292.792, 487.139 306.500 C 487.114 308.150, 487.012 314.450, 486.912 320.500 C 486.723 331.942, 488.231 340.594, 490.201 339.376 C 490.864 338.966, 491.027 339.147, 490.608 339.825 C 489.137 342.206, 494.282 348.543, 500.150 351.578 C 507.713 355.488, 520.735 354.435, 524.500 349.609 C 525.050 348.904, 526.551 347.767, 527.836 347.082 C 529.120 346.398, 529.915 345.581, 529.601 345.268 C 529.288 344.954, 529.767 344.159, 530.667 343.502 C 531.966 342.552, 532.034 342.139, 530.997 341.498 C 530.134 340.965, 529.933 341.082, 530.405 341.845 C 530.830 342.534, 530.474 343, 529.524 343 C 528.240 343, 528.138 342.611, 529 341 C 529.589 339.900, 530.911 339, 531.937 339 C 535.767 339, 536.068 334.733, 535.988 281.509 C 535.946 253.454, 535.557 229.150, 535.122 227.500 C 533.596 221.703, 531.567 217.952, 530.233 218.464 C 529.408 218.781, 529.027 218.324, 529.210 217.234 C 529.397 216.115, 528.893 215.547, 527.789 215.632 C 526.848 215.705, 526.173 215.480, 526.289 215.132 C 526.405 214.785, 526.100 214.426, 525.612 214.335 C 525.123 214.245, 524.390 213.632, 523.983 212.973 C 523.576 212.314, 520.826 210.950, 517.871 209.941 C 512.970 208.267, 509.463 208.141, 477.776 208.500 C 451.547 208.798, 442.863 208.601, 442.276 207.697 C 441.849 207.039, 441.500 191.425, 441.500 173 L 441.500 139.500 438.737 133.875 C 433.780 123.780, 420.691 117.758, 411.464 121.326 M 433.461 133.957 C 435.639 136.364, 436.138 136.524, 435.391 134.577 C 435.091 133.795, 434.118 132.875, 433.229 132.534 C 431.901 132.025, 431.942 132.279, 433.461 133.957 M 396.603 134.833 C 396.320 135.292, 396.723 135.667, 397.500 135.667 C 398.277 135.667, 398.680 135.292, 398.397 134.833 C 398.114 134.375, 397.710 134, 397.500 134 C 397.290 134, 396.886 134.375, 396.603 134.833 M 495.079 139.583 C 495.127 140.748, 495.364 140.985, 495.683 140.188 C 495.972 139.466, 495.936 138.603, 495.604 138.271 C 495.272 137.939, 495.036 138.529, 495.079 139.583 M 216.656 197.164 C 215.089 198.048, 213.544 198.529, 211 198.925 C 210.725 198.967, 209.286 200.047, 207.802 201.323 C 205.264 203.505, 205.208 203.733, 206.850 205.139 C 207.810 205.962, 209.193 206.436, 209.923 206.192 C 210.715 205.928, 211.057 206.304, 210.771 207.125 C 210.508 207.881, 209.518 208.360, 208.572 208.189 C 207.626 208.018, 206.215 208.406, 205.438 209.052 C 204.327 209.973, 203.891 209.879, 203.405 208.613 C 202.364 205.900, 200.981 206.790, 198.890 211.515 C 196.200 217.598, 196.005 225.433, 198.500 227.214 C 199.513 227.937, 199.651 228.416, 199.875 232.001 C 200.152 236.436, 212.340 245.645, 214.152 242.789 C 214.802 241.763, 214.973 241.759, 214.985 242.769 C 214.995 243.641, 215.829 243.830, 217.649 243.373 C 219.548 242.897, 220.093 243.041, 219.572 243.884 C 219.040 244.743, 220.467 244.995, 224.890 244.820 C 229.344 244.644, 231.044 244.176, 231.351 243.041 C 231.690 241.787, 231.790 241.816, 231.884 243.199 C 232.035 245.406, 267.454 245.941, 268.338 243.750 C 268.741 242.751, 268.858 242.750, 268.921 243.750 C 268.979 244.660, 271.684 245, 278.878 245 C 285.768 245, 289.082 245.394, 289.835 246.301 C 290.559 247.173, 291.019 261.285, 291.229 289.051 C 291.542 330.308, 291.554 330.520, 293.876 334.750 C 295.978 338.580, 298 340.277, 298 338.213 C 298 337.780, 299.012 337.355, 300.250 337.268 C 302.421 337.116, 302.429 337.149, 300.500 338.203 C 299.400 338.803, 298.377 339.389, 298.226 339.504 C 297.284 340.226, 299.518 343.015, 300.681 342.569 C 301.464 342.269, 301.859 342.419, 301.561 342.902 C 300.663 344.354, 305.482 346.869, 310.652 347.647 C 315.647 348.399, 325.172 348.537, 340 348.073 C 344.675 347.926, 353.113 348.139, 358.750 348.546 C 366.475 349.104, 369 348.990, 369 348.084 C 369 347.373, 369.510 347.201, 370.250 347.663 C 371.963 348.733, 374 348.975, 374 348.109 C 374 347.716, 376.587 347.687, 379.750 348.045 C 385.738 348.722, 407.536 348.355, 414.533 347.459 C 419.427 346.832, 425.385 343.432, 424.395 341.830 C 423.949 341.109, 424.138 340.967, 424.909 341.443 C 425.593 341.866, 426.974 341.428, 428.063 340.443 C 430.154 338.551, 430.738 336.426, 428.845 337.595 C 428.124 338.041, 427.963 337.869, 428.415 337.138 C 428.813 336.494, 429.491 336.186, 429.923 336.452 C 431.225 337.257, 433.181 331.846, 433.702 326 C 434.072 321.837, 433.689 319.342, 432.126 315.737 C 430.990 313.118, 430.090 310.713, 430.128 310.394 C 430.278 309.097, 424.504 304, 422.884 304 C 421.927 304, 420.534 303.391, 419.790 302.647 C 418.672 301.529, 417.575 301.514, 413.469 302.559 C 407.834 303.993, 406.367 303.765, 410.949 302.168 C 414.577 300.903, 415.055 299.518, 411.561 300.395 C 410.189 300.740, 408.821 300.520, 408.433 299.892 C 407.944 299.101, 403.207 298.975, 392.122 299.461 C 383.530 299.837, 375.825 300.174, 375 300.209 C 374.175 300.244, 372.851 300.774, 372.058 301.386 C 370.959 302.235, 370.794 302.203, 371.367 301.250 C 372.283 299.726, 371.453 299.660, 354.941 299.947 C 345.121 300.118, 342.126 299.856, 341.206 298.748 C 340.355 297.723, 339.956 285.732, 339.765 255.415 C 339.521 216.877, 339.350 213.199, 337.640 209.759 C 336.539 207.543, 335.315 206.283, 334.640 206.669 C 334.013 207.027, 333.822 206.964, 334.215 206.529 C 335.195 205.443, 333.131 201.801, 331.950 202.531 C 331.427 202.854, 331 202.653, 331 202.085 C 331 200.769, 326.500 198.429, 321.988 197.399 C 317.541 196.384, 279.773 195.824, 280.365 196.782 C 280.609 197.177, 278.645 197.500, 276 197.500 C 273.355 197.500, 271.380 197.195, 271.610 196.822 C 272.318 195.676, 218.701 196.010, 216.656 197.164 M 794.500 197.160 C 789.336 199.096, 786.464 201.660, 786.225 204.547 C 786.101 206.050, 785.256 207.824, 784.347 208.488 C 783.325 209.236, 783.002 210.195, 783.502 211.003 C 784.045 211.882, 783.918 212.068, 783.114 211.570 C 782.456 211.164, 782.157 209.857, 782.449 208.666 C 782.794 207.258, 782.525 207.471, 781.680 209.274 C 780.965 210.799, 780.070 211.812, 779.690 211.524 C 779.311 211.236, 779.209 211.284, 779.465 211.631 C 779.720 211.979, 779.413 213.216, 778.781 214.381 C 777.965 215.885, 777.681 227.294, 777.799 253.701 C 777.913 278.929, 777.627 291.113, 776.910 291.556 C 776.329 291.915, 767.674 292.228, 757.677 292.252 C 747.464 292.276, 738.952 292.722, 738.250 293.270 C 737.413 293.922, 737 293.874, 737 293.122 C 737 291.469, 719.331 291.592, 718.662 293.250 C 718.259 294.250, 718.142 294.250, 718.079 293.250 C 717.966 291.462, 703.610 291.533, 701.812 293.330 C 701.081 294.062, 699.924 294.475, 699.241 294.247 C 698.558 294.019, 698 294.321, 698 294.917 C 698 295.512, 697.663 295.947, 697.250 295.882 C 695.257 295.567, 693.944 296.101, 694.500 297 C 694.840 297.550, 694.390 298, 693.500 298 C 692.610 298, 692.160 298.450, 692.500 299 C 692.840 299.550, 692.361 300, 691.437 300 C 690.044 300, 689.972 300.262, 691.019 301.523 C 692.070 302.789, 692.019 302.944, 690.718 302.445 C 689.065 301.811, 687.110 304.505, 686.415 308.374 C 684.459 319.256, 684.018 323.662, 684.150 331 C 684.368 343.067, 684.972 347, 686.609 347 C 687.374 347, 688 347.400, 688 347.889 C 688 348.378, 687.212 348.715, 686.250 348.639 C 683.901 348.452, 683.768 373.606, 686.110 375.089 C 687.218 375.791, 687.145 375.972, 685.750 375.985 C 683.598 376.004, 683.100 384.989, 685.250 385.015 C 686.145 385.026, 686.104 385.281, 685.106 385.913 C 682.672 387.455, 684.160 413.145, 687.052 419.500 C 688.303 422.250, 689.268 424.795, 689.195 425.155 C 688.944 426.402, 695.612 430.799, 699.299 431.817 C 701.334 432.379, 703 432.595, 703 432.297 C 703 431.999, 703.626 432.275, 704.391 432.910 C 705.917 434.176, 713.996 433.992, 713.999 432.691 C 713.999 432.246, 714.437 432.152, 714.971 432.482 C 717.304 433.924, 726.194 427.670, 725.263 425.242 C 724.915 424.335, 725.079 423.931, 725.652 424.285 C 727.166 425.220, 729.999 421.322, 731.550 416.169 C 733.343 410.211, 733.430 371.275, 731.655 369.058 C 730.749 367.927, 730.786 367.788, 731.824 368.413 C 732.892 369.055, 733.085 367.453, 732.824 360.102 C 732.646 355.093, 732.725 350.994, 733 350.993 C 733.275 350.991, 733.608 349.109, 733.741 346.809 C 734.013 342.085, 735.100 341.037, 739.750 341.015 C 741.667 341.006, 743.006 340.487, 743.015 339.750 C 743.027 338.811, 743.240 338.830, 743.873 339.829 C 744.442 340.726, 746.491 341.076, 750.172 340.905 C 753.173 340.766, 756.162 340.982, 756.814 341.385 C 757.467 341.788, 758 341.615, 758 341 C 758 340.385, 758.480 340.179, 759.067 340.541 C 759.654 340.904, 767.416 341.126, 776.317 341.033 C 796.703 340.822, 795.247 340.923, 796.942 339.614 C 798.041 338.765, 798.206 338.797, 797.633 339.750 C 797.068 340.690, 798.260 341, 802.441 341 C 805.498 341, 808 340.606, 808 340.125 C 808 339.644, 809.118 339.250, 810.485 339.250 C 813.471 339.250, 818.300 336.294, 817.480 334.968 C 817.159 334.448, 817.501 334.255, 818.240 334.539 C 823.399 336.518, 830.336 310.966, 825.391 308.199 C 823.927 307.380, 823.925 307.243, 825.367 306.689 C 826.782 306.146, 826.952 301.401, 826.940 262.790 C 826.926 218.981, 826.635 212.490, 824.736 213.663 C 824.137 214.033, 823.988 213.828, 824.386 213.184 C 825.249 211.788, 822.366 206, 820.808 206 C 820.180 206, 819.959 205.707, 820.317 205.350 C 821.164 204.503, 816.761 200.445, 812.741 198.366 C 808.824 196.340, 798.507 195.658, 794.500 197.160 M 267.510 199.016 C 267.856 199.575, 268.557 199.774, 269.069 199.457 C 270.456 198.600, 270.198 198, 268.441 198 C 267.584 198, 267.165 198.457, 267.510 199.016 M 323.813 199.683 C 324.534 199.972, 325.397 199.936, 325.729 199.604 C 326.061 199.272, 325.471 199.036, 324.417 199.079 C 323.252 199.127, 323.015 199.364, 323.813 199.683 M 712.500 205 C 712.840 205.550, 713.316 206, 713.559 206 C 713.802 206, 714 205.550, 714 205 C 714 204.450, 713.523 204, 712.941 204 C 712.359 204, 712.160 204.450, 712.500 205 M 717 204.882 C 717 205.432, 717.450 206.160, 718 206.500 C 718.550 206.840, 719 206.668, 719 206.118 C 719 205.568, 718.550 204.840, 718 204.500 C 717.450 204.160, 717 204.332, 717 204.882 M 783.500 205 C 783.160 205.550, 783.359 206, 783.941 206 C 784.523 206, 785 205.550, 785 205 C 785 204.450, 784.802 204, 784.559 204 C 784.316 204, 783.840 204.450, 783.500 205 M 204 206 C 204 206.550, 204.450 207, 205 207 C 205.550 207, 206 206.550, 206 206 C 206 205.450, 205.550 205, 205 205 C 204.450 205, 204 205.450, 204 206 M 328.603 205.833 C 328.320 206.292, 328.723 206.667, 329.500 206.667 C 330.277 206.667, 330.680 206.292, 330.397 205.833 C 330.114 205.375, 329.710 205, 329.500 205 C 329.290 205, 328.886 205.375, 328.603 205.833 M 787.667 205.667 C 787.300 206.033, 787 206.798, 787 207.367 C 787 207.993, 787.466 207.934, 788.183 207.217 C 788.834 206.566, 789.134 205.801, 788.850 205.517 C 788.566 205.232, 788.033 205.300, 787.667 205.667 M 780.500 214 C 780.160 214.550, 780.332 215, 780.882 215 C 781.432 215, 782.160 214.550, 782.500 214 C 782.840 213.450, 782.668 213, 782.118 213 C 781.568 213, 780.840 213.450, 780.500 214 M 227.304 238.500 C 226.101 239.342, 224.360 239.711, 223.331 239.340 C 222.290 238.966, 221.849 239.063, 222.309 239.567 C 223.933 241.343, 232 240.663, 232 238.750 C 232 236.604, 230.151 236.505, 227.304 238.500 M 280.638 241.500 C 280.322 242.325, 280.499 243, 281.031 243 C 281.564 243, 282 242.325, 282 241.500 C 282 240.675, 281.823 240, 281.607 240 C 281.391 240, 280.955 240.675, 280.638 241.500 M 704.507 241.989 C 704.157 242.555, 704.558 242.723, 705.448 242.382 C 707.180 241.717, 707.497 241, 706.059 241 C 705.541 241, 704.843 241.445, 704.507 241.989 M 779.728 253.250 C 780.448 266.935, 781.274 267.306, 780.842 253.751 C 780.654 247.839, 780.205 243.001, 779.844 243.001 C 779.484 243, 779.432 247.613, 779.728 253.250 M 782 250.167 C 782 255.102, 782.494 254.943, 783.296 249.750 C 783.616 247.673, 783.456 246, 782.937 246 C 782.422 246, 782 247.875, 782 250.167 M 404.872 250.750 C 403.629 252.336, 403.664 252.371, 405.250 251.128 C 406.212 250.373, 407 249.585, 407 249.378 C 407 248.555, 406.179 249.084, 404.872 250.750 M 780.158 268 C 780.158 269.375, 780.385 269.938, 780.662 269.250 C 780.940 268.563, 780.940 267.438, 780.662 266.750 C 780.385 266.063, 780.158 266.625, 780.158 268 M 782.571 268.571 C 782.204 270.037, 782.096 271.429, 782.331 271.665 C 782.567 271.900, 783.061 270.894, 783.429 269.429 C 783.796 267.963, 783.904 266.571, 783.669 266.335 C 783.433 266.100, 782.939 267.106, 782.571 268.571 M 211.969 300.536 C 207.572 301.892, 198.357 308.690, 199.444 309.777 C 199.740 310.073, 199.589 310.807, 199.108 311.408 C 196.751 314.351, 195.968 324.777, 196.030 352.400 C 196.096 381.667, 196.241 383.221, 199 384.271 C 199.970 384.641, 199.667 384.870, 198.142 384.921 C 196.145 384.988, 195.878 385.379, 196.403 387.469 C 197.637 392.385, 195.486 392.719, 161.078 392.950 C 143.796 393.066, 127.209 393.559, 124.218 394.046 C 118.865 394.917, 112.443 398.682, 111.321 401.606 C 111.027 402.373, 110.111 403, 109.286 403 C 108.341 403, 108.006 403.574, 108.382 404.552 C 108.771 405.566, 108.575 405.856, 107.819 405.388 C 107.038 404.905, 106.875 405.231, 107.319 406.388 C 107.692 407.361, 107.569 407.852, 107.035 407.522 C 104.629 406.035, 103.888 416.796, 103.508 458.785 C 103.074 506.620, 103.716 516.786, 107.607 523.642 C 111.985 531.357, 123.700 536.793, 132.500 535.193 C 134.700 534.793, 136.275 534.183, 136 533.838 C 135.725 533.493, 136.288 532.339, 137.252 531.274 C 138.216 530.209, 138.782 529.033, 138.511 528.661 C 138.239 528.288, 138.572 528.456, 139.250 529.033 C 140.222 529.861, 140.198 530.260, 139.135 530.917 C 138.305 531.429, 138.172 531.988, 138.788 532.369 C 139.810 533.001, 141.492 530.247, 141.102 528.581 C 140.984 528.075, 141.541 528.204, 142.340 528.868 C 143.530 529.855, 144.352 529.396, 146.869 526.343 C 152.678 519.296, 152.920 517.387, 152.866 479 C 152.838 459.808, 153.109 443.632, 153.467 443.053 C 153.903 442.347, 165.522 442.009, 188.673 442.028 C 215.262 442.049, 223.592 441.761, 224.806 440.778 C 226.099 439.731, 226.239 439.740, 225.582 440.833 C 225.017 441.771, 225.774 441.660, 228.140 440.458 C 233.595 437.685, 234.222 436.973, 232.762 435.207 C 231.642 433.851, 231.751 433.835, 233.734 435.070 C 235.707 436.299, 236.174 436.243, 237.734 434.590 C 238.991 433.258, 239.067 432.932, 238 433.461 C 237.175 433.869, 237.999 432.971, 239.831 431.466 C 242.082 429.616, 243.004 428.123, 242.674 426.863 C 242.406 425.837, 242.595 425.249, 243.093 425.558 C 243.592 425.866, 244.058 425.079, 244.129 423.809 C 244.200 422.539, 244.396 420.150, 244.565 418.500 C 244.951 414.737, 245.024 322.042, 244.643 320 C 243.532 314.044, 242.725 312.046, 241.669 312.638 C 240.910 313.063, 240.939 312.820, 241.751 311.946 C 243.531 310.028, 237.755 304.063, 234.666 304.627 C 233.475 304.844, 233.063 304.755, 233.750 304.428 C 235.666 303.517, 235.235 301.696, 233.280 302.446 C 232.335 302.809, 231.892 302.774, 232.297 302.370 C 235.150 299.516, 219.775 298.130, 211.969 300.536 M 221.813 300.683 C 222.534 300.972, 223.397 300.936, 223.729 300.604 C 224.061 300.272, 223.471 300.036, 222.417 300.079 C 221.252 300.127, 221.015 300.364, 221.813 300.683 M 693.459 301.067 C 693.096 301.653, 693.014 302.348, 693.276 302.610 C 693.538 302.872, 694.019 302.392, 694.345 301.543 C 695.021 299.781, 694.445 299.471, 693.459 301.067 M 212.500 302 C 211.181 302.567, 211.011 302.878, 212 302.914 C 212.825 302.945, 214.175 302.533, 215 302 C 216.828 300.819, 215.249 300.819, 212.500 302 M 227 302 C 227 302.550, 227.477 303, 228.059 303 C 228.641 303, 228.840 302.550, 228.500 302 C 228.160 301.450, 227.684 301, 227.441 301 C 227.198 301, 227 301.450, 227 302 M 368 303.059 C 368 303.641, 368.450 303.840, 369 303.500 C 369.550 303.160, 370 302.684, 370 302.441 C 370 302.198, 369.550 302, 369 302 C 368.450 302, 368 302.477, 368 303.059 M 386.500 303 C 386.160 303.550, 386.359 304, 386.941 304 C 387.523 304, 388 303.550, 388 303 C 388 302.450, 387.802 302, 387.559 302 C 387.316 302, 386.840 302.450, 386.500 303 M 219.750 303.662 C 220.438 303.940, 221.563 303.940, 222.250 303.662 C 222.938 303.385, 222.375 303.158, 221 303.158 C 219.625 303.158, 219.063 303.385, 219.750 303.662 M 599.750 304.731 C 596.587 305.548, 594 306.617, 594 307.108 C 594 307.599, 593.315 308, 592.478 308 C 590.664 308, 584.486 317.329, 585.972 317.824 C 587.614 318.371, 587.167 320.413, 584.998 322.270 C 583.053 323.935, 583.003 325.047, 583.248 361.364 C 583.436 389.177, 583.197 399.028, 582.314 399.852 C 581.498 400.614, 570.603 400.971, 547.314 400.999 C 514.101 401.039, 507.494 401.515, 504.388 404.093 C 503.533 404.803, 501.935 405.450, 500.837 405.530 C 498.640 405.692, 494 410.528, 494 412.656 C 494 413.395, 493.438 414.007, 492.750 414.015 C 491.917 414.026, 492 414.354, 493 415 C 493.868 415.561, 494.006 415.976, 493.328 415.985 C 490.012 416.028, 489.517 423.823, 489.939 469.330 C 490.110 487.789, 490.361 491.075, 491.570 490.611 C 492.357 490.310, 493 490.499, 493 491.031 C 493 491.564, 492.612 492, 492.139 492 C 490.106 492, 492.585 497.446, 496.597 501.791 C 500.263 505.762, 501.121 506.265, 502.067 505 C 503.033 503.708, 503.114 503.733, 502.654 505.177 C 502.360 506.099, 502.767 507.392, 503.559 508.049 C 504.352 508.707, 505 508.910, 505 508.500 C 505 508.090, 505.596 508.250, 506.324 508.854 C 507.290 509.656, 507.965 509.635, 508.824 508.776 C 509.725 507.875, 510 507.880, 510 508.800 C 510 511.615, 526.078 509.070, 528.057 505.942 C 528.559 505.149, 528.976 504.945, 528.985 505.490 C 529.011 507.172, 534.348 500.813, 534.486 498.935 C 534.558 497.963, 535.088 496.567, 535.664 495.833 C 537.147 493.945, 537.987 490, 536.906 490 C 536.408 490, 536 489.550, 536 489 C 536 488.450, 536.563 488.112, 537.250 488.250 C 538.174 488.435, 538.574 485.699, 538.784 477.750 C 539.030 468.430, 538.854 467, 537.462 467 C 536.003 467, 536 466.857, 537.429 465.429 C 539.222 463.635, 539.410 460.917, 538.064 456.224 C 537.394 453.889, 537.443 453.156, 538.234 453.645 C 538.944 454.083, 539.115 453.743, 538.714 452.696 C 537.783 450.270, 539.740 449.579, 546.806 449.840 C 551.769 450.023, 552.994 449.792, 552.390 448.787 C 551.768 447.752, 551.930 447.754, 553.219 448.799 C 554.473 449.815, 561.205 450.026, 584.161 449.770 C 616.479 449.410, 617.093 449.305, 624.346 442.898 C 632.147 436.005, 632.265 435.386, 632.286 401.527 C 632.329 329.531, 631.986 322.872, 627.826 314.891 C 623.264 306.139, 611.204 301.775, 599.750 304.731 M 824 304 C 824 304.550, 824.477 305, 825.059 305 C 825.641 305, 825.840 304.550, 825.500 304 C 825.160 303.450, 824.684 303, 824.441 303 C 824.198 303, 824 303.450, 824 304 M 235.500 307 C 235.160 307.550, 235.610 308, 236.500 308 C 237.390 308, 237.840 307.550, 237.500 307 C 237.160 306.450, 236.710 306, 236.500 306 C 236.290 306, 235.840 306.450, 235.500 307 M 598 307.559 C 598 308.416, 598.457 308.835, 599.016 308.490 C 599.575 308.144, 599.774 307.443, 599.457 306.931 C 598.600 305.544, 598 305.802, 598 307.559 M 239.079 309.583 C 239.127 310.748, 239.364 310.985, 239.683 310.188 C 239.972 309.466, 239.936 308.603, 239.604 308.271 C 239.272 307.939, 239.036 308.529, 239.079 309.583 M 198.158 318 C 198.158 319.375, 198.385 319.938, 198.662 319.250 C 198.940 318.563, 198.940 317.438, 198.662 316.750 C 198.385 316.063, 198.158 316.625, 198.158 318 M 626.543 316.931 C 626.226 317.443, 626.350 318.098, 626.817 318.387 C 627.284 318.676, 627.667 318.257, 627.667 317.456 C 627.667 315.770, 627.351 315.623, 626.543 316.931 M 520.011 337.513 C 520.702 338.345, 521.769 338.949, 522.383 338.855 C 522.998 338.761, 524.288 339.029, 525.250 339.449 C 527.318 340.353, 530 339.519, 530 337.972 C 530 337.373, 529.550 337.160, 529 337.500 C 528.450 337.840, 528 337.641, 528 337.059 C 528 336.466, 525.964 336, 523.378 336 C 519.364 336, 518.921 336.199, 520.011 337.513 M 795.500 337 C 795.160 337.550, 795.332 338, 795.882 338 C 796.432 338, 797.160 337.550, 797.500 337 C 797.840 336.450, 797.668 336, 797.118 336 C 796.568 336, 795.840 336.450, 795.500 337 M 371.079 345.583 C 371.127 346.748, 371.364 346.985, 371.683 346.188 C 371.972 345.466, 371.936 344.603, 371.604 344.271 C 371.272 343.939, 371.036 344.529, 371.079 345.583 M 524.674 345.594 C 524.925 346.246, 525.995 346.553, 527.053 346.276 C 529.422 345.656, 528.663 344.074, 526.090 344.268 C 525.061 344.346, 524.424 344.942, 524.674 345.594 M 408.500 346 C 408.840 346.550, 409.316 347, 409.559 347 C 409.802 347, 410 346.550, 410 346 C 410 345.450, 409.523 345, 408.941 345 C 408.359 345, 408.160 345.450, 408.500 346 M 729.500 375 C 729.840 375.550, 730.316 376, 730.559 376 C 730.802 376, 731 375.550, 731 375 C 731 374.450, 730.523 374, 729.941 374 C 729.359 374, 729.160 374.450, 729.500 375 M 802 392.094 C 790.788 392.858, 787.824 393.475, 784.224 395.796 C 780.973 397.893, 777.750 402.754, 777.750 405.562 C 777.750 406.883, 777.389 407.740, 776.947 407.467 C 775.061 406.301, 774.632 413.460, 774.568 447.167 C 774.530 466.783, 774.234 483.099, 773.908 483.425 C 773.464 483.870, 735.161 485.053, 715.500 485.229 C 714.400 485.239, 709.396 484.994, 704.379 484.684 C 691.881 483.911, 680 486.863, 680 490.741 C 680 491.832, 681.469 492.484, 682.275 491.750 C 682.426 491.613, 683.258 492.162, 684.124 492.972 C 685.461 494.220, 685.492 494.651, 684.324 495.819 C 682.621 497.522, 680 496.648, 680 494.376 C 680 492.817, 679.854 492.823, 678.063 494.443 C 676.998 495.407, 675.710 495.939, 675.203 495.625 C 674.085 494.934, 671.362 501.097, 670.531 506.201 C 669.962 509.694, 672.353 519.782, 674.038 521 C 674.419 521.275, 675.030 522.462, 675.397 523.638 C 676.202 526.221, 683.637 531.353, 685.524 530.629 C 686.265 530.345, 687.023 530.569, 687.209 531.127 C 687.786 532.858, 711.015 533.583, 712.096 531.903 C 712.812 530.791, 713.170 530.763, 713.819 531.765 C 714.927 533.480, 801.004 533.611, 802.062 531.900 C 802.452 531.268, 803.669 531.078, 804.875 531.460 C 806.108 531.852, 807 531.700, 807 531.099 C 807 530.529, 807.572 530.282, 808.271 530.550 C 810.374 531.357, 817.388 526.117, 819.790 521.944 C 821.999 518.106, 822.005 518.005, 820.137 516.137 C 817.853 513.853, 818.895 510.838, 821.284 512.821 C 823.497 514.657, 823.979 507.602, 824.007 473 C 824.020 456.225, 824.361 442.050, 824.765 441.500 C 825.226 440.873, 836.323 440.500, 854.500 440.500 C 880.832 440.500, 883.812 440.330, 886.896 438.649 C 888.763 437.631, 889.888 436.506, 889.396 436.149 C 888.903 435.792, 888.350 434.825, 888.167 434 C 887.983 433.175, 888.167 432.834, 888.575 433.241 C 888.982 433.649, 890.032 433.424, 890.908 432.741 C 892.307 431.650, 892.338 431.706, 891.164 433.206 C 888.741 436.301, 890.969 436.915, 894.134 434.025 C 896.084 432.244, 896.949 430.727, 896.464 429.941 C 895.994 429.181, 896.099 428.943, 896.732 429.334 C 897.305 429.688, 898.329 429.308, 899.009 428.489 C 899.689 427.670, 899.879 427, 899.431 427 C 898.984 427, 899.438 426.401, 900.440 425.668 C 903.798 423.212, 903.232 404.503, 899.862 406.585 C 899.401 406.870, 899.282 406.429, 899.599 405.604 C 900.584 403.037, 892.373 395.286, 890.143 396.679 C 888.730 397.561, 888.333 397.511, 888.333 396.448 C 888.333 395.700, 888.821 395.357, 889.417 395.685 C 890.013 396.013, 889.825 395.602, 889 394.772 C 885.687 391.438, 881.199 391.061, 846.691 391.221 C 827.886 391.308, 807.775 391.701, 802 392.094 M 320.651 396.226 C 314.101 397.040, 306.098 401.297, 304.513 404.812 C 303.970 406.015, 303.188 407, 302.776 407 C 301.208 407, 298.945 414.603, 298.868 420.132 C 298.768 427.200, 301.506 433.671, 304.386 433.175 C 305.718 432.945, 306.102 433.291, 305.695 434.352 C 305.105 435.890, 307.229 438.437, 308.251 437.416 C 308.562 437.104, 309.078 437.671, 309.397 438.675 C 310.544 442.290, 325.249 445.795, 327.088 442.892 C 327.737 441.867, 327.973 441.835, 327.985 442.769 C 327.997 443.768, 334.793 444.023, 360.019 443.972 C 377.630 443.936, 392.480 444.179, 393.019 444.512 C 393.606 444.875, 394.010 453.222, 394.024 465.309 C 394.056 491.215, 395.954 499.700, 401.103 496.945 C 402.581 496.154, 402.837 496.261, 402.371 497.477 C 402.049 498.315, 401.314 499, 400.738 499 C 396.889 499, 407.111 505.769, 413 507.120 C 416.665 507.961, 424.257 507.224, 423.559 506.095 C 423.336 505.735, 424.357 505.504, 425.827 505.582 C 431.905 505.904, 441.076 498.293, 440.536 493.375 C 440.396 492.099, 440.620 491.265, 441.034 491.521 C 441.981 492.106, 442.030 491.356, 442.491 469.500 C 442.710 459.093, 442.518 452.555, 442.035 454 L 441.199 456.500 441.100 453.750 C 441.045 452.238, 441.474 451, 442.054 451 C 442.719 451, 443.053 447.958, 442.960 442.750 C 442.879 438.212, 442.891 430.316, 442.988 425.201 C 443.102 419.177, 442.740 415.392, 441.960 414.451 C 441.297 413.653, 441.043 413, 441.394 413 C 442.310 413, 437.417 403.587, 435.828 402.292 C 428.942 396.678, 425.056 395.686, 408.141 395.226 C 395.042 394.869, 391.581 395.052, 390.892 396.140 C 390.393 396.929, 390.024 397.029, 390.015 396.378 C 390.001 395.294, 379.290 395.395, 376.198 396.508 C 375.482 396.766, 375.171 396.532, 375.507 395.989 C 375.843 395.445, 375.454 395, 374.642 395 C 373.831 395, 372.940 395.563, 372.662 396.250 C 372.259 397.250, 372.142 397.250, 372.079 396.250 C 372.036 395.563, 371.273 395, 370.385 395 C 368.914 395, 368.919 395.245, 370.449 397.750 L 372.127 400.500 369.561 397.691 L 366.994 394.882 346.747 395.191 C 335.611 395.361, 323.868 395.827, 320.651 396.226 M 415.507 398.989 C 415.157 399.555, 415.558 399.723, 416.448 399.382 C 418.180 398.717, 418.497 398, 417.059 398 C 416.541 398, 415.843 398.445, 415.507 398.989 M 424.500 399 C 424.840 399.550, 425.316 400, 425.559 400 C 425.802 400, 426 399.550, 426 399 C 426 398.450, 425.523 398, 424.941 398 C 424.359 398, 424.160 398.450, 424.500 399 M 896.564 402.293 C 896.940 403.279, 897.499 403.834, 897.807 403.526 C 898.115 403.219, 897.808 402.412, 897.124 401.733 C 896.136 400.753, 896.022 400.868, 896.564 402.293 M 686.336 409.567 C 686.005 410.429, 686.132 411.531, 686.617 412.016 C 687.127 412.526, 687.561 411.864, 687.644 410.449 C 687.809 407.658, 687.221 407.262, 686.336 409.567 M 897.079 413.583 C 897.127 414.748, 897.364 414.985, 897.683 414.188 C 897.972 413.466, 897.936 412.603, 897.604 412.271 C 897.272 411.939, 897.036 412.529, 897.079 413.583 M 240.564 418.707 C 240.022 420.132, 240.136 420.247, 241.124 419.267 C 241.808 418.588, 242.115 417.781, 241.807 417.474 C 241.499 417.166, 240.940 417.721, 240.564 418.707 M 493.079 420.583 C 493.127 421.748, 493.364 421.985, 493.683 421.188 C 493.972 420.466, 493.936 419.603, 493.604 419.271 C 493.272 418.939, 493.036 419.529, 493.079 420.583 M 301.613 425.183 C 301.902 425.650, 302.557 425.774, 303.069 425.457 C 304.377 424.649, 304.230 424.333, 302.544 424.333 C 301.743 424.333, 301.324 424.716, 301.613 425.183 M 492.079 427.583 C 492.127 428.748, 492.364 428.985, 492.683 428.188 C 492.972 427.466, 492.936 426.603, 492.604 426.271 C 492.272 425.939, 492.036 426.529, 492.079 427.583 M 309 435 C 309 435.550, 309.450 436, 310 436 C 310.550 436, 311 435.550, 311 435 C 311 434.450, 310.550 434, 310 434 C 309.450 434, 309 434.450, 309 435 M 374.682 440.652 C 373.168 442.166, 374.244 442.644, 379.250 442.683 C 383.524 442.717, 383.759 442.643, 380.513 442.288 C 378.320 442.048, 376.264 441.428, 375.945 440.910 C 375.625 440.393, 375.057 440.277, 374.682 440.652 M 616 441.059 C 616 441.641, 616.450 441.840, 617 441.500 C 617.550 441.160, 618 440.684, 618 440.441 C 618 440.198, 617.550 440, 617 440 C 616.450 440, 616 440.477, 616 441.059 M 333 442 C 329.540 442.728, 329.534 442.738, 332.500 442.853 C 334.150 442.917, 336.175 442.533, 337 442 C 338.665 440.924, 338.112 440.924, 333 442 M 441.079 481.583 C 441.127 482.748, 441.364 482.985, 441.683 482.188 C 441.972 481.466, 441.936 480.603, 441.604 480.271 C 441.272 479.939, 441.036 480.529, 441.079 481.583 M 772.750 485.662 C 773.438 485.940, 774.563 485.940, 775.250 485.662 C 775.938 485.385, 775.375 485.158, 774 485.158 C 772.625 485.158, 772.063 485.385, 772.750 485.662 M 710.813 486.683 C 711.534 486.972, 712.397 486.936, 712.729 486.604 C 713.061 486.272, 712.471 486.036, 711.417 486.079 C 710.252 486.127, 710.015 486.364, 710.813 486.683 M 714.813 487.683 C 715.534 487.972, 716.397 487.936, 716.729 487.604 C 717.061 487.272, 716.471 487.036, 715.417 487.079 C 714.252 487.127, 714.015 487.364, 714.813 487.683 M 886.500 490.195 C 885.400 490.819, 884.275 491.625, 884 491.987 C 883.725 492.350, 882.684 492.947, 881.687 493.316 C 880.636 493.704, 880.175 494.475, 880.591 495.147 C 880.998 495.806, 880.876 496.041, 880.308 495.690 C 878.801 494.759, 874.385 499.919, 872.394 504.936 C 870.533 509.628, 870.334 516.227, 870.802 558 C 871.010 576.645, 870.746 580.654, 869.205 582.195 C 868.162 583.238, 839.103 583.428, 829.250 582.457 C 823.412 581.881, 821.997 582.010, 821.985 583.121 C 821.972 584.290, 821.836 584.290, 821.094 583.117 C 820.405 582.030, 817.892 581.832, 809.359 582.191 C 797.136 582.704, 794.131 583.753, 786.754 590.079 C 782.495 593.732, 782.128 594.371, 783.168 596.324 C 784.175 598.214, 784.130 598.337, 782.821 597.258 C 779.879 594.833, 779.200 599.879, 778.944 626.086 C 778.807 640.064, 778.646 656.675, 778.586 663 C 778.293 693.778, 779.973 713.278, 783.215 716.729 C 788.765 722.637, 793.051 724.302, 803 724.415 C 814.009 724.540, 825 718.187, 825 711.698 C 825 710.434, 825.558 708.842, 826.239 708.161 C 827.760 706.640, 828.498 663.604, 827.257 648.828 C 826.810 643.509, 826.794 639.373, 827.222 639.637 C 827.650 639.902, 828 639.416, 828 638.559 C 828 637.702, 827.553 637, 827.007 637 C 826.460 637, 826.894 635.987, 827.969 634.750 C 829.922 632.504, 829.979 632.500, 859.713 632.653 C 882.300 632.770, 891.268 632.455, 896.814 631.350 C 904.196 629.879, 910.598 626.931, 909.277 625.610 C 908.883 625.216, 909.277 625.169, 910.151 625.504 C 912.272 626.318, 917.944 619.150, 919.086 614.212 C 920.100 609.826, 920.193 514.549, 919.190 508 C 918.810 505.525, 917.975 503.500, 917.333 503.500 C 916.692 503.500, 915.792 503.090, 915.333 502.590 C 914.849 502.061, 915.024 501.981, 915.750 502.399 C 917.860 503.613, 917.148 501.505, 913.966 497.112 C 912.298 494.808, 910.498 493.193, 909.966 493.521 C 909.435 493.849, 909 493.615, 909 493 C 909 492.385, 908.550 492.160, 908 492.500 C 907.450 492.840, 907 492.732, 907 492.260 C 907 489.479, 890.664 487.834, 886.500 490.195 M 267.882 491.766 C 267.816 492.720, 267.819 493.988, 267.887 494.583 C 267.955 495.179, 267.373 495.667, 266.594 495.667 C 265.535 495.667, 265.394 495.095, 266.036 493.406 L 266.895 491.146 246.197 491.126 C 234.814 491.116, 224.600 491.539, 223.500 492.067 C 221.766 492.900, 221.862 492.979, 224.220 492.658 C 225.716 492.455, 226.702 492.674, 226.411 493.144 C 225.657 494.364, 222.244 494.204, 221.444 492.910 C 218.921 488.827, 203.595 497.897, 205.339 502.441 C 205.696 503.370, 205.420 503.715, 204.578 503.392 C 202.725 502.680, 201.872 505.532, 203.028 508.574 C 204.333 512.007, 204.207 512.958, 202.772 510.500 C 201.641 508.564, 201.581 508.580, 200.902 511 C 200.515 512.375, 200.155 528.886, 200.100 547.691 C 200.030 571.490, 199.664 582.090, 198.894 582.565 C 198.286 582.941, 185.683 583.176, 170.888 583.088 C 154.737 582.991, 142.433 583.345, 140.097 583.974 C 136.346 584.984, 134.384 587.195, 135.556 589.090 C 135.865 589.591, 135.401 590, 134.524 590 C 133.246 590, 133.139 589.608, 133.988 588.023 C 134.851 586.409, 134.766 586.153, 133.523 586.629 C 132.685 586.951, 132 587.616, 132 588.107 C 132 588.598, 131.491 589, 130.868 589 C 129.509 589, 123 595.726, 123 597.130 C 123 597.674, 123.450 597.840, 124 597.500 C 124.550 597.160, 125 597.359, 125 597.941 C 125 598.523, 124.355 599, 123.567 599 C 120.169 599, 119.783 610.020, 122.933 617.127 C 125.616 623.177, 131.580 628.459, 138.190 630.636 C 145.580 633.071, 221.180 633.906, 228.752 631.636 C 231.602 630.782, 233.378 629.703, 233.194 628.937 C 232.965 627.987, 233.225 627.942, 234.213 628.762 C 235.929 630.186, 241.595 625.327, 245.593 619 C 248.214 614.852, 248.457 613.639, 248.693 603.500 C 249.154 583.752, 249.017 542.837, 248.488 541.980 C 247.282 540.029, 254.701 539.641, 294.500 539.572 C 341.866 539.491, 339.277 539.898, 346.904 531.321 C 354.437 522.849, 355.954 513.693, 351.374 504.333 C 348.505 498.467, 343.535 493.581, 341.308 494.435 C 340.531 494.733, 340.153 494.561, 340.467 494.053 C 340.782 493.544, 339.117 492.895, 336.769 492.609 C 325.986 491.297, 324 491.236, 324 492.218 C 324 492.883, 323.533 492.857, 322.673 492.144 C 320.907 490.678, 282.299 490.707, 281.392 492.175 C 280.983 492.836, 280.523 492.860, 280.125 492.240 C 279.781 491.704, 276.913 490.989, 273.750 490.649 C 268.750 490.113, 267.985 490.259, 267.882 491.766 M 885 492.378 C 885 492.585, 885.788 493.373, 886.750 494.128 C 888.336 495.371, 888.371 495.336, 887.128 493.750 C 885.821 492.084, 885 491.555, 885 492.378 M 318 493.393 C 318 493.609, 318.698 494.054, 319.552 494.382 C 320.442 494.723, 320.843 494.555, 320.493 493.989 C 319.906 493.038, 318 492.583, 318 493.393 M 676 494.059 C 676 494.641, 676.450 494.840, 677 494.500 C 677.550 494.160, 678 493.684, 678 493.441 C 678 493.198, 677.550 493, 677 493 C 676.450 493, 676 493.477, 676 494.059 M 322 495 C 322 495.550, 322.450 496, 323 496 C 323.550 496, 324 495.550, 324 495 C 324 494.450, 323.550 494, 323 494 C 322.450 494, 322 494.450, 322 495 M 326.750 495.662 C 327.438 495.940, 328.563 495.940, 329.250 495.662 C 329.938 495.385, 329.375 495.158, 328 495.158 C 326.625 495.158, 326.063 495.385, 326.750 495.662 M 493 495.544 C 493 495.660, 493.600 496.253, 494.333 496.862 C 495.330 497.689, 495.667 497.635, 495.667 496.651 C 495.667 495.926, 495.067 495.333, 494.333 495.333 C 493.600 495.333, 493 495.428, 493 495.544 M 677.120 497.750 C 676.581 498.712, 675.884 499.387, 675.570 499.250 C 674.082 498.597, 673.669 499.140, 675 500 C 677.817 501.821, 680 501.166, 680 498.500 C 680 495.601, 678.536 495.220, 677.120 497.750 M 878.736 497.598 C 878.407 497.927, 878.382 498.832, 878.680 499.609 C 879.046 500.561, 878.730 500.833, 877.712 500.443 C 876.882 500.124, 875.953 500.268, 875.648 500.761 C 875.342 501.255, 876.084 501.586, 877.296 501.497 C 878.800 501.387, 879.536 500.647, 879.613 499.168 C 879.736 496.833, 879.651 496.682, 878.736 497.598 M 593.698 507.151 C 586.511 510.785, 581.815 517.904, 581.265 526 C 580.182 541.956, 580.551 593, 581.750 593 C 582.438 593, 583 593.436, 583 593.969 C 583 594.501, 582.438 594.722, 581.750 594.460 C 578.284 593.137, 580.509 609.789, 584.630 616.017 C 590.734 625.241, 608.264 629.435, 625.880 625.888 C 629.992 625.060, 631.437 625.090, 632.009 626.015 C 632.579 626.937, 632.906 626.901, 633.379 625.863 C 633.780 624.983, 634.186 624.882, 634.526 625.579 C 634.960 626.468, 670.241 626.603, 702.750 625.841 C 703.987 625.812, 705 625.356, 705 624.827 C 705 624.298, 705.841 624.132, 706.868 624.458 C 711.125 625.809, 721.726 617.884, 720.734 614.092 C 720.406 612.835, 720.654 612.314, 721.440 612.615 C 723.246 613.308, 725.299 606.007, 724.775 600.755 C 724.182 594.813, 719.614 586.868, 717.231 587.633 C 716.086 588.001, 715.906 587.894, 716.697 587.318 C 718.021 586.355, 717.476 585.254, 714.558 583 C 712.832 581.667, 712.701 581.667, 713.382 583 C 713.839 583.894, 713.573 583.799, 712.725 582.766 C 711.943 581.812, 711.009 581.324, 710.651 581.682 C 710.293 582.040, 710 581.760, 710 581.060 C 710 580.359, 709.380 580.024, 708.622 580.315 C 707.864 580.606, 706.739 580.339, 706.122 579.722 C 705.435 579.035, 702.189 578.722, 697.750 578.915 C 693.762 579.088, 688.700 579.196, 686.500 579.155 C 684.300 579.113, 670.935 578.949, 656.800 578.790 C 637.873 578.576, 630.771 578.170, 629.848 577.247 C 628.916 576.316, 628.556 569.275, 628.443 549.747 C 628.278 521.094, 627.680 517.407, 622.292 511.782 C 620.125 509.521, 619.393 509.254, 618.143 510.268 C 616.875 511.297, 616.733 511.212, 617.281 509.750 C 617.869 508.181, 617.430 507.806, 615.340 508.090 C 614.977 508.139, 614.279 507.464, 613.790 506.590 C 613.301 505.715, 612.221 505, 611.391 505 C 610.561 505, 610.160 505.450, 610.500 506 C 611.447 507.532, 610.045 507.188, 608.323 505.466 C 606.086 503.229, 600.087 503.920, 593.698 507.151 M 517.813 505.683 C 518.534 505.972, 519.397 505.936, 519.729 505.604 C 520.061 505.272, 519.471 505.036, 518.417 505.079 C 517.252 505.127, 517.015 505.364, 517.813 505.683 M 590.543 509.931 C 590.226 510.443, 590.350 511.098, 590.817 511.387 C 591.284 511.676, 591.667 511.257, 591.667 510.456 C 591.667 508.770, 591.351 508.623, 590.543 509.931 M 593.584 510.641 C 593.057 512.014, 593.204 512.076, 594.477 511.019 C 596.212 509.579, 596.393 509, 595.107 509 C 594.616 509, 593.931 509.739, 593.584 510.641 M 816.079 513.583 C 816.127 514.748, 816.364 514.985, 816.683 514.188 C 816.972 513.466, 816.936 512.603, 816.604 512.271 C 816.272 511.939, 816.036 512.529, 816.079 513.583 M 816.564 522.293 C 816.940 523.279, 817.499 523.834, 817.807 523.526 C 818.115 523.219, 817.808 522.412, 817.124 521.733 C 816.136 520.753, 816.022 520.868, 816.564 522.293 M 344 522.839 C 344 523.301, 342.975 524.146, 341.722 524.717 C 340.469 525.288, 339.371 526.720, 339.283 527.899 C 339.194 529.078, 339.544 529.782, 340.061 529.463 C 340.577 529.143, 341 529.343, 341 529.906 C 341 530.469, 341.890 531.406, 342.977 531.988 C 344.555 532.832, 344.845 532.759, 344.409 531.624 C 344.109 530.842, 344.414 529.862, 345.086 529.447 C 345.935 528.922, 346.059 529.121, 345.493 530.095 C 345.045 530.868, 345.875 530.409, 347.339 529.076 C 348.802 527.742, 350 526.242, 350 525.742 C 350 524.421, 347.523 525.450, 347.375 526.833 C 347.128 529.141, 346.978 529.227, 345.436 527.947 C 344.443 527.123, 344.084 525.799, 344.455 524.324 C 344.776 523.046, 344.805 522, 344.519 522 C 344.234 522, 344 522.378, 344 522.839 M 703.666 526.170 C 703.374 527.287, 702.654 527.904, 702.067 527.542 C 701.480 527.179, 701 527.411, 701 528.058 C 701 528.789, 701.851 529.005, 703.250 528.630 C 704.487 528.299, 706.048 528.021, 706.719 528.014 C 708.250 527.996, 707.302 525.330, 705.521 524.647 C 704.763 524.356, 703.970 525.007, 703.666 526.170 M 625 529.059 C 625 529.641, 625.450 529.840, 626 529.500 C 626.550 529.160, 627 528.684, 627 528.441 C 627 528.198, 626.550 528, 626 528 C 625.450 528, 625 528.477, 625 529.059 M 694.813 528.683 C 695.534 528.972, 696.397 528.936, 696.729 528.604 C 697.061 528.272, 696.471 528.036, 695.417 528.079 C 694.252 528.127, 694.015 528.364, 694.813 528.683 M 712.500 529 C 712.160 529.550, 712.359 530, 712.941 530 C 713.523 530, 714 529.550, 714 529 C 714 528.450, 713.802 528, 713.559 528 C 713.316 528, 712.840 528.450, 712.500 529 M 756 531 C 756 531.550, 756.477 532, 757.059 532 C 757.641 532, 757.840 531.550, 757.500 531 C 757.160 530.450, 756.684 530, 756.441 530 C 756.198 530, 756 530.450, 756 531 M 292.269 536.693 C 293.242 536.947, 294.592 536.930, 295.269 536.656 C 295.946 536.382, 295.150 536.175, 293.500 536.195 C 291.850 536.215, 291.296 536.439, 292.269 536.693 M 447.615 564.718 C 447.495 564.838, 439.354 564.987, 429.523 565.048 C 404.857 565.202, 399.246 567.486, 393.880 579.559 C 392.214 583.307, 392.063 588.135, 391.907 642.559 C 391.733 703.778, 391.961 707.599, 395.718 706.387 C 397.120 705.934, 397.200 706.025, 396.090 706.813 C 393.583 708.596, 400.502 716.866, 406.441 719.186 C 412.227 721.447, 420.117 722.064, 424.844 720.625 C 429.155 719.312, 438.692 708.859, 439.995 704.018 C 440.557 701.930, 440.964 682.237, 440.956 657.458 C 440.943 620.067, 441.139 614.371, 442.471 613.398 C 443.312 612.783, 444 611.734, 444 611.068 C 444 610.284, 444.567 610.424, 445.607 611.464 C 447.740 613.597, 518.040 613.385, 518.753 611.244 C 518.983 610.553, 519.659 610.289, 520.255 610.658 C 520.962 611.095, 521.099 610.700, 520.647 609.523 C 520.068 608.013, 520.198 607.920, 521.442 608.952 C 522.650 609.954, 523.511 609.772, 526.022 607.984 C 527.723 606.773, 528.905 605.571, 528.647 605.314 C 528.390 605.057, 529.601 603.487, 531.340 601.826 C 534.319 598.980, 534.520 598.326, 534.853 590.403 C 535.128 583.839, 534.909 581.997, 533.853 581.985 C 532.922 581.974, 532.851 581.740, 533.624 581.235 C 534.952 580.367, 533.624 576, 532.032 576 C 531.465 576, 531 575.389, 531 574.642 C 531 572.178, 520.799 566.233, 517.074 566.526 C 514.838 566.702, 514.185 566.497, 515.111 565.910 C 516.022 565.333, 514.780 565.011, 511.500 564.973 C 488.337 564.704, 447.790 564.543, 447.615 564.718 M 626.158 566 C 626.158 567.375, 626.385 567.938, 626.662 567.250 C 626.940 566.563, 626.940 565.438, 626.662 564.750 C 626.385 564.063, 626.158 564.625, 626.158 566 M 404 569 C 402.787 569.784, 402.931 569.972, 404.750 569.985 C 405.988 569.993, 407 569.550, 407 569 C 407 567.747, 405.939 567.747, 404 569 M 687.762 581.707 C 689.006 581.946, 690.806 581.937, 691.762 581.687 C 692.718 581.437, 691.700 581.241, 689.500 581.252 C 687.300 581.263, 686.518 581.468, 687.762 581.707 M 240 591 C 240 591.550, 240.450 592, 241 592 C 241.550 592, 242 591.550, 242 591 C 242 590.450, 241.550 590, 241 590 C 240.450 590, 240 590.450, 240 591 M 308.069 591.567 C 302.884 593.817, 301.880 594.907, 303.024 597.044 C 304.099 599.054, 302.779 600.600, 300.951 599.470 C 300.226 599.022, 300.241 598.414, 301 597.500 C 303.181 594.872, 300.249 595.132, 297.778 597.786 C 294.715 601.073, 294.008 602.988, 295.081 605.083 C 295.633 606.160, 295.444 606.667, 294.490 606.667 C 293.719 606.667, 293.363 606.222, 293.698 605.679 C 294.034 605.136, 293.809 605, 293.198 605.378 C 292.587 605.755, 292.323 606.679, 292.612 607.431 C 292.900 608.183, 292.654 609.096, 292.065 609.460 C 291.475 609.824, 291.268 611.220, 291.605 612.561 C 291.985 614.077, 291.786 615, 291.078 615 C 290.244 615, 289.996 623.997, 290.155 648.576 C 290.321 674.477, 290.086 682.329, 289.126 682.922 C 288.441 683.345, 272.945 683.560, 254.690 683.400 C 220.855 683.103, 214.515 683.406, 215.665 685.267 C 216.050 685.890, 215.822 686.008, 215.098 685.560 C 213.335 684.471, 208.772 685.822, 209.614 687.184 C 210.013 687.831, 209.862 688.033, 209.259 687.660 C 208.681 687.303, 207.207 687.822, 205.983 688.813 C 203.931 690.474, 203.884 690.741, 205.379 692.236 C 207.776 694.634, 207.346 695.273, 204.563 693.449 C 202.178 691.887, 202.066 691.944, 199.313 696.109 L 196.500 700.365 196.500 720.933 C 196.500 733.488, 196.890 741.786, 197.500 742.235 C 198.119 742.690, 198.024 742.975, 197.250 742.985 C 195.212 743.010, 195.458 798.578, 197.500 799.362 C 198.462 799.731, 199.028 799.321, 199.079 798.219 C 199.122 797.273, 199.360 796.989, 199.608 797.586 C 199.855 798.183, 199.623 799.758, 199.092 801.086 C 198.396 802.826, 198.109 803.011, 198.063 801.750 C 198.029 800.788, 197.530 800, 196.955 800 C 195.882 800, 196.199 803.279, 198.127 812.112 C 199.289 817.439, 204.327 822.997, 210.218 825.451 C 215.007 827.446, 216.079 827.404, 215.321 825.250 C 214.819 823.821, 214.953 823.730, 216.053 824.750 C 216.794 825.438, 218.323 826.007, 219.450 826.015 C 221.171 826.028, 221.259 826.200, 220 827.087 C 218.904 827.858, 219.787 827.971, 223.278 827.506 C 228.769 826.774, 236.214 823.156, 235.294 821.667 C 234.944 821.100, 235.292 820.898, 236.091 821.205 C 238.611 822.172, 240.233 819.375, 238.283 817.425 C 236.697 815.840, 236.736 815.781, 238.922 816.475 C 240.733 817.050, 241.069 816.913, 240.433 815.857 C 239.770 814.756, 239.904 814.733, 241.141 815.734 C 242.351 816.713, 242.688 816.713, 242.772 815.734 C 242.830 815.055, 243.339 812.700, 243.903 810.500 C 244.501 808.171, 244.974 791.463, 245.037 770.500 C 245.163 728.538, 245.114 729.876, 246.464 730.883 C 247.034 731.308, 263.700 731.610, 283.500 731.555 L 319.500 731.453 325 728.450 C 328.433 726.575, 330.453 724.829, 330.374 723.802 C 330.298 722.798, 330.779 722.362, 331.612 722.681 C 332.423 722.993, 333.690 721.950, 334.738 720.109 C 335.707 718.406, 336.837 717.010, 337.250 717.006 C 337.663 717.003, 338 716.523, 338 715.941 C 338 715.359, 337.646 715.100, 337.214 715.368 C 336.782 715.635, 336.429 715.019, 336.429 714 C 336.429 712.981, 336.735 712.336, 337.110 712.568 C 338.836 713.635, 339.086 706.353, 338.933 659.542 C 338.776 611.277, 338.697 609.344, 336.709 605.110 C 335.576 602.696, 333.828 600.506, 332.824 600.244 C 331.821 599.981, 331 599.343, 331 598.824 C 331 598.306, 331.563 598.206, 332.250 598.601 C 332.976 599.019, 333.151 598.939, 332.667 598.410 C 332.208 597.910, 331.421 597.444, 330.917 597.375 C 330.412 597.306, 329.602 597.194, 329.117 597.125 C 328.631 597.056, 328.018 596.177, 327.755 595.171 C 327.431 593.932, 325.355 592.802, 321.323 591.671 C 314.136 589.654, 312.507 589.641, 308.069 591.567 M 528.493 594.023 C 528.121 595.193, 528.083 596.417, 528.409 596.742 C 528.734 597.067, 529 596.760, 529 596.060 C 529 595.338, 529.651 595.036, 530.500 595.362 C 532.398 596.090, 532.452 594.620, 530.584 593.070 C 529.451 592.129, 529.033 592.320, 528.493 594.023 M 528 599.378 C 528 599.585, 528.788 600.373, 529.750 601.128 C 531.336 602.371, 531.371 602.336, 530.128 600.750 C 528.821 599.084, 528 598.555, 528 599.378 M 718 608.893 C 718 610.111, 720.944 611.153, 722.197 610.378 C 722.835 609.984, 722.708 609.430, 721.857 608.890 C 720.079 607.764, 718 607.765, 718 608.893 M 476.750 609.662 C 477.438 609.940, 478.563 609.940, 479.250 609.662 C 479.938 609.385, 479.375 609.158, 478 609.158 C 476.625 609.158, 476.063 609.385, 476.750 609.662 M 293.500 613 C 293.160 613.550, 293.359 614, 293.941 614 C 294.523 614, 295 613.550, 295 613 C 295 612.450, 294.802 612, 294.559 612 C 294.316 612, 293.840 612.450, 293.500 613 M 123.564 615.293 C 123.940 616.279, 124.499 616.834, 124.807 616.526 C 125.115 616.219, 124.808 615.412, 124.124 614.733 C 123.136 613.753, 123.022 613.868, 123.564 615.293 M 781 617.167 C 781 620.808, 781.437 620.676, 782.378 616.750 C 782.770 615.117, 782.624 614, 782.019 614 C 781.459 614, 781 615.425, 781 617.167 M 589.112 616.909 C 587.979 617.627, 588.117 618.209, 589.862 620.083 C 591.038 621.345, 592 621.869, 592 621.248 C 592 620.626, 591.519 619.821, 590.932 619.458 C 590.344 619.095, 590.105 618.168, 590.400 617.399 C 591.026 615.769, 590.956 615.742, 589.112 616.909 M 714.566 617.107 C 714.826 617.528, 715.911 617.807, 716.977 617.727 C 719.349 617.548, 718.684 616.679, 716.026 616.483 C 714.963 616.405, 714.306 616.686, 714.566 617.107 M 712.613 620.183 C 712.902 620.650, 713.557 620.774, 714.069 620.457 C 715.377 619.649, 715.230 619.333, 713.544 619.333 C 712.743 619.333, 712.324 619.716, 712.613 620.183 M 394.622 650.750 C 395.416 654.063, 396 654.909, 396 652.748 C 396 651.877, 396.273 650.452, 396.607 649.582 C 397.007 648.539, 396.660 648, 395.588 648 C 394.321 648, 394.108 648.607, 394.622 650.750 M 782.564 652.707 C 782.022 654.132, 782.136 654.247, 783.124 653.267 C 783.808 652.588, 784.115 651.781, 783.807 651.474 C 783.499 651.166, 782.940 651.721, 782.564 652.707 M 336.079 662.583 C 336.127 663.748, 336.364 663.985, 336.683 663.188 C 336.972 662.466, 336.936 661.603, 336.604 661.271 C 336.272 660.939, 336.036 661.529, 336.079 662.583 M 508.326 666.035 C 500.311 667.638, 492.218 673.842, 489.427 680.522 C 487.769 684.489, 487.562 687.389, 489 686.500 C 489.550 686.160, 490 686.359, 490 686.941 C 490 687.523, 489.398 688, 488.663 688 C 487.567 688, 487.310 696.939, 487.235 737.750 C 487.136 791.618, 487.602 797.077, 492.468 799.050 C 493.586 799.503, 494.147 799.902, 493.715 799.937 C 492.040 800.072, 495.222 804.065, 498.280 805.663 C 504.597 808.967, 511.879 809.950, 526.487 809.468 C 534.194 809.214, 548.600 809.040, 558.500 809.082 C 568.400 809.123, 577.387 809.142, 578.471 809.124 C 581.997 809.065, 583.860 811.688, 583 815.500 C 582.578 817.370, 582.397 819.064, 582.598 819.264 C 582.798 819.465, 582.908 830.625, 582.841 844.065 C 582.666 879.279, 582.860 883.002, 585.088 887.165 C 586.885 890.523, 590.249 893.964, 591.175 893.392 C 591.656 893.094, 591.967 893.222, 591.866 893.676 C 591.486 895.380, 593.215 897.855, 594.454 897.379 C 595.162 897.108, 595.987 897.523, 596.286 898.302 C 597.100 900.425, 604.809 902.008, 609.500 901.017 C 617.492 899.327, 618.499 899.003, 618.830 898.010 C 619.015 897.454, 619.757 897, 620.479 897 C 621.201 897, 623.076 895.397, 624.646 893.438 C 626.216 891.478, 627.967 889.341, 628.538 888.688 C 632.604 884.035, 632.853 880.382, 632.578 829.500 C 632.318 781.602, 632.264 780.406, 630.163 776.304 C 628.981 773.996, 627.223 771.647, 626.257 771.084 C 625.291 770.521, 624.916 770.047, 625.424 770.030 C 625.933 770.014, 625.305 768.889, 624.029 767.531 C 622.753 766.173, 621.322 765.301, 620.848 765.594 C 620.374 765.887, 619.724 765.445, 619.405 764.612 C 618.036 761.046, 612.568 760.554, 574 760.527 L 536.500 760.500 536.485 724 C 536.470 687.389, 536.225 684.333, 532.743 677.215 C 532.128 675.958, 531.048 675.151, 530.344 675.421 C 529.640 675.692, 528.755 675.413, 528.378 674.802 C 527.962 674.129, 528.146 673.972, 528.845 674.405 C 530.657 675.524, 530.195 673.482, 528.250 671.771 C 522.935 667.099, 514.766 664.747, 508.326 666.035 M 607.250 674.148 C 604.913 674.681, 603 675.568, 603 676.118 C 603 676.668, 602.616 676.881, 602.147 676.591 C 600.774 675.742, 597.303 678.826, 598.614 679.731 C 599.290 680.198, 599.416 681.285, 598.934 682.500 C 598.209 684.328, 597.502 683.153, 597.882 680.750 C 597.947 680.337, 597.556 680, 597.013 680 C 595.072 680, 590.614 688.457, 590.557 692.247 C 590.525 694.308, 590.251 695.995, 589.947 695.997 C 588.098 696.007, 590.889 706.987, 593.824 711.249 C 600.157 720.445, 604.584 721.256, 648.314 721.227 L 682.127 721.204 683.159 723.852 C 683.726 725.308, 683.975 729.307, 683.711 732.737 C 683.367 737.224, 683.551 738.784, 684.366 738.295 C 685.049 737.886, 685 738.234, 684.244 739.167 C 682.936 740.784, 682.782 780, 684.084 780 C 684.424 780, 684.371 782.138, 683.967 784.750 C 682.231 795.983, 682.788 806.463, 685.440 812.460 C 687.091 816.194, 688.359 817.896, 689.132 817.419 C 689.805 817.002, 690.044 817.120, 689.690 817.692 C 689.350 818.243, 690.346 819.916, 691.905 821.409 L 694.739 824.124 694.457 821.557 C 694.302 820.145, 694.593 819.248, 695.104 819.564 C 695.615 819.880, 695.799 820.516, 695.513 820.979 C 694.430 822.732, 696.133 824.778, 698.221 824.232 C 699.645 823.860, 700.084 824.054, 699.597 824.842 C 699.204 825.479, 699.322 826, 699.859 826 C 700.397 826, 701.548 826.273, 702.418 826.607 C 703.303 826.947, 704 826.700, 704 826.048 C 704 825.407, 703.550 825.160, 703 825.500 C 702.450 825.840, 702 825.593, 702 824.952 C 702 824.300, 702.697 824.053, 703.582 824.393 C 704.452 824.727, 705.689 825.007, 706.332 825.015 C 707.066 825.025, 706.987 825.356, 706.119 825.905 C 704.525 826.915, 710.289 828.145, 716.011 828.017 C 733.238 827.630, 749.964 826.507, 747 825.937 L 743.500 825.263 747.750 825.021 C 756.385 824.527, 758.464 824.764, 755.544 825.906 C 752.709 827.014, 771.494 827.956, 790.500 827.658 C 806.575 827.406, 810.573 826.766, 809.302 824.645 C 808.912 823.993, 809.311 824.063, 810.230 824.807 C 812.098 826.321, 816 824.558, 816 822.200 C 816 821.475, 815.550 821.160, 815 821.500 C 813.991 822.123, 813.633 820.894, 813.933 817.839 C 814.022 816.925, 813.626 815.887, 813.052 815.532 C 812.367 815.109, 812.604 813.786, 813.740 811.693 L 815.473 808.500 815.798 811.202 C 815.992 812.809, 816.909 814.154, 818.062 814.520 C 819.128 814.858, 820 815.540, 820 816.035 C 820 817.338, 824.475 815.500, 824.625 814.135 C 824.694 813.511, 824.860 812.663, 824.993 812.250 C 825.127 811.837, 825.184 811.163, 825.118 810.750 C 825.053 810.337, 825.430 810, 825.956 810 C 827.221 810, 826.658 797.516, 825.316 795.817 C 824.744 795.092, 824.001 793.346, 823.666 791.936 C 822.983 789.067, 816.484 782.606, 813.248 781.579 C 808.375 780.032, 784.072 779.219, 781.949 780.532 C 781.257 780.959, 780.942 780.902, 781.250 780.405 C 781.775 779.556, 767.708 779.434, 745.321 780.093 C 731.038 780.513, 732.074 784.344, 731.685 729.633 C 731.439 695.133, 731.194 689.614, 729.863 688.633 C 729.017 688.010, 728.523 686.911, 728.765 686.191 C 729.199 684.903, 721.083 676.584, 720.227 677.440 C 719.985 677.682, 718.904 677.057, 717.824 676.051 C 716.745 675.045, 714.655 673.983, 713.181 673.690 C 708.324 672.727, 611.648 673.145, 607.250 674.148 M 294.158 677 C 294.158 678.375, 294.385 678.938, 294.662 678.250 C 294.940 677.563, 294.940 676.438, 294.662 675.750 C 294.385 675.063, 294.158 675.625, 294.158 677 M 493 678 C 492.411 679.100, 492.070 680, 492.243 680 C 492.415 680, 493.326 679.100, 494.268 678 C 495.210 676.900, 495.551 676, 495.025 676 C 494.500 676, 493.589 676.900, 493 678 M 640 676.797 C 640 677.236, 643.038 677.436, 646.750 677.242 C 656.881 676.714, 657.504 676.246, 648.250 676.116 C 643.712 676.052, 640 676.359, 640 676.797 M 600.628 684.208 C 601.314 685.316, 604 685.201, 604 684.062 C 604 683.546, 603.131 683.190, 602.069 683.270 C 601.007 683.350, 600.359 683.772, 600.628 684.208 M 605 684 C 605 684.550, 605.450 685, 606 685 C 606.550 685, 607 684.550, 607 684 C 607 683.450, 606.550 683, 606 683 C 605.450 683, 605 683.450, 605 684 M 265.459 686.067 C 265.096 686.653, 265.014 687.348, 265.276 687.610 C 265.538 687.872, 266.019 687.392, 266.345 686.543 C 267.021 684.781, 266.445 684.471, 265.459 686.067 M 433.500 709.765 C 432.950 710.169, 432.345 711.400, 432.155 712.500 C 431.759 714.793, 432.233 714.453, 433.900 711.250 C 435.149 708.849, 435.083 708.602, 433.500 709.765 M 782.459 713.067 C 782.096 713.653, 782.014 714.348, 782.276 714.610 C 782.538 714.872, 783.019 714.392, 783.345 713.543 C 784.021 711.781, 783.445 711.471, 782.459 713.067 M 428.500 714 C 428.160 714.550, 428.359 715, 428.941 715 C 429.523 715, 430 714.550, 430 714 C 430 713.450, 429.802 713, 429.559 713 C 429.316 713, 428.840 713.450, 428.500 714 M 810.658 721.450 C 810.311 722.354, 810.761 722.614, 812.075 722.270 C 814.373 721.669, 814.461 721.391, 812.583 720.670 C 811.803 720.371, 810.937 720.722, 810.658 721.450 M 529.079 726.583 C 529.127 727.748, 529.364 727.985, 529.683 727.188 C 529.972 726.466, 529.936 725.603, 529.604 725.271 C 529.272 724.939, 529.036 725.529, 529.079 726.583 M 272.750 729.662 C 273.438 729.940, 274.563 729.940, 275.250 729.662 C 275.938 729.385, 275.375 729.158, 274 729.158 C 272.625 729.158, 272.063 729.385, 272.750 729.662 M 730 735.333 C 730 736.250, 729.592 737, 729.094 737 C 728.595 737, 728.453 738.013, 728.778 739.250 C 729.309 741.272, 729.457 741.160, 730.241 738.140 C 730.721 736.293, 730.863 734.530, 730.557 734.224 C 730.251 733.917, 730 734.417, 730 735.333 M 616.325 764.658 C 616.687 765.020, 616.424 766.032, 615.741 766.908 C 614.645 768.314, 614.703 768.341, 616.239 767.137 C 617.803 765.910, 617.825 764, 616.274 764 C 615.940 764, 615.963 764.296, 616.325 764.658 M 625.337 773.250 C 624.159 775.136, 624.046 777.090, 625.154 776.405 C 625.693 776.072, 625.882 775.549, 625.575 775.242 C 625.268 774.935, 625.519 774.080, 626.131 773.342 C 626.744 772.604, 626.991 772, 626.681 772 C 626.372 772, 625.767 772.563, 625.337 773.250 M 686 773 C 686 773.550, 686.450 774, 687 774 C 687.550 774, 688 773.550, 688 773 C 688 772.450, 687.550 772, 687 772 C 686.450 772, 686 772.450, 686 773 M 685 777.559 C 685 778.416, 685.457 778.835, 686.016 778.490 C 686.575 778.144, 686.774 777.443, 686.457 776.931 C 685.600 775.544, 685 775.802, 685 777.559 M 354.224 779.803 C 350.482 780.018, 349.143 780.454, 349.621 781.303 C 350.095 782.146, 349.895 782.131, 348.947 781.250 C 348 780.371, 343.355 780, 333.300 780 C 322.535 780, 318.996 780.309, 318.985 781.250 C 318.973 782.230, 318.801 782.235, 318.190 781.274 C 316.436 778.512, 303 785.061, 303 788.678 C 303 789.470, 302.597 789.869, 302.105 789.565 C 300.988 788.875, 300.005 791.318, 299.985 794.832 C 299.973 796.922, 299.759 797.175, 299 796 C 298.242 794.827, 298.027 795.086, 298.015 797.191 C 298.007 798.671, 297.507 800.187, 296.904 800.559 C 296.196 800.997, 296.053 802.875, 296.499 805.868 C 297.393 811.862, 299.681 817.315, 300.968 816.520 C 301.538 816.167, 301.740 816.515, 301.431 817.319 C 300.512 819.714, 306.909 821.611, 310.150 819.905 C 311.290 819.305, 311.976 819.495, 312.369 820.518 C 312.681 821.333, 312.541 822, 312.057 822 C 310.522 822, 311.575 825.183, 313.459 826.237 C 316.102 827.716, 342.448 828.533, 341.567 827.109 C 341.177 826.478, 341.554 826, 342.441 826 C 343.298 826, 344 826.337, 344.001 826.750 C 344.001 827.163, 353.948 827.485, 366.105 827.466 C 379.828 827.445, 388.728 827.824, 389.576 828.466 C 390.683 829.303, 390.970 836.299, 391.082 865.176 C 391.216 899.540, 391.301 901.011, 393.374 905.176 C 394.557 907.554, 396.195 909.520, 397.013 909.545 C 397.831 909.570, 398.383 910.145, 398.241 910.823 C 398.098 911.501, 398.658 912.315, 399.485 912.633 C 400.312 912.950, 400.743 913.607, 400.442 914.093 C 400.142 914.579, 400.668 914.681, 401.612 914.319 C 402.714 913.896, 403.088 914.048, 402.658 914.745 C 402.254 915.398, 403.878 916.559, 406.744 917.665 C 411.141 919.361, 415.467 919.500, 464 919.500 C 492.973 919.500, 517.396 919.097, 518.500 918.600 C 519.600 918.105, 521.370 917.532, 522.434 917.328 C 529.463 915.978, 537.588 902.474, 536.732 893.566 C 536.469 890.826, 535.772 888.424, 535.183 888.228 C 534.594 888.031, 534.329 887.307, 534.593 886.618 C 535.546 884.135, 527.230 876.230, 521.352 874.030 C 516.049 872.046, 513.895 871.943, 478.453 871.975 C 443.720 872.006, 441.103 871.887, 440.641 870.254 C 440.368 869.289, 440.123 852.641, 440.097 833.258 C 440.042 793.142, 440.220 794.114, 431.353 785.616 C 427.438 781.865, 425.764 781.006, 420.608 780.100 C 413.980 778.935, 409.002 779.025, 409.001 780.309 C 409 780.754, 408.438 780.766, 407.750 780.336 C 406.552 779.586, 365.166 779.174, 354.224 779.803 M 402.750 781.662 C 403.438 781.940, 404.563 781.940, 405.250 781.662 C 405.938 781.385, 405.375 781.158, 404 781.158 C 402.625 781.158, 402.063 781.385, 402.750 781.662 M 739.543 781.931 C 738.878 783.007, 740.835 784.498, 741.733 783.600 C 742.063 783.270, 741.696 782.993, 740.917 782.985 C 739.750 782.972, 739.765 782.798, 741 782 C 741.901 781.418, 742.025 781.025, 741.309 781.015 C 740.654 781.007, 739.859 781.419, 739.543 781.931 M 787.250 781.689 C 788.212 781.941, 789.788 781.941, 790.750 781.689 C 791.712 781.438, 790.925 781.232, 789 781.232 C 787.075 781.232, 786.288 781.438, 787.250 781.689 M 792.676 782.402 C 791.869 784.504, 792.917 784.995, 795.600 783.773 C 798.015 782.672, 798.860 781, 797 781 C 796.450 781, 796 781.450, 796 782 C 796 782.550, 795.523 783, 794.941 783 C 794.359 783, 794.160 782.550, 794.500 782 C 794.840 781.450, 794.690 781, 794.166 781 C 793.642 781, 792.972 781.631, 792.676 782.402 M 685 783 C 685 783.550, 685.477 784, 686.059 784 C 686.641 784, 686.840 783.550, 686.500 783 C 686.160 782.450, 685.684 782, 685.441 782 C 685.198 782, 685 782.450, 685 783 M 432 789.378 C 432 789.585, 432.788 790.373, 433.750 791.128 C 435.336 792.371, 435.371 792.336, 434.128 790.750 C 432.821 789.084, 432 788.555, 432 789.378 M 493.975 792.658 C 494.539 792.938, 495 793.767, 495 794.500 C 495 795.233, 494.539 796.062, 493.975 796.342 C 493.411 796.621, 493.524 796.734, 494.225 796.592 C 494.926 796.450, 495.500 795.508, 495.500 794.500 C 495.500 793.492, 494.926 792.550, 494.225 792.408 C 493.524 792.266, 493.411 792.379, 493.975 792.658 M 303.079 795.583 C 303.127 796.748, 303.364 796.985, 303.683 796.188 C 303.972 795.466, 303.936 794.603, 303.604 794.271 C 303.272 793.939, 303.036 794.529, 303.079 795.583 M 240.500 809 C 240.840 809.550, 241.316 810, 241.559 810 C 241.802 810, 242 809.550, 242 809 C 242 808.450, 241.523 808, 240.941 808 C 240.359 808, 240.160 808.450, 240.500 809 M 815.656 816.545 C 815.960 817.339, 816.612 817.740, 817.105 817.435 C 818.345 816.669, 818.231 816.303, 816.551 815.658 C 815.584 815.287, 815.286 815.582, 815.656 816.545 M 205.613 818.183 C 205.902 818.650, 206.557 818.774, 207.069 818.457 C 208.377 817.649, 208.230 817.333, 206.544 817.333 C 205.743 817.333, 205.324 817.716, 205.613 818.183 M 304 818 C 304 818.550, 304.450 819, 305 819 C 305.550 819, 306 818.550, 306 818 C 306 817.450, 305.550 817, 305 817 C 304.450 817, 304 817.450, 304 818 M 818 819.500 C 818 820.325, 818.450 821, 819 821 C 819.550 821, 820 820.325, 820 819.500 C 820 818.675, 819.550 818, 819 818 C 818.450 818, 818 818.675, 818 819.500 M 748.500 823 C 748.160 823.550, 748.809 824, 749.941 824 C 751.073 824, 752 823.550, 752 823 C 752 822.450, 751.352 822, 750.559 822 C 749.766 822, 748.840 822.450, 748.500 823 M 760 823 C 760 823.550, 760.927 824, 762.059 824 C 763.191 824, 763.840 823.550, 763.500 823 C 763.160 822.450, 762.234 822, 761.441 822 C 760.648 822, 760 822.450, 760 823 M 211.813 824.683 C 212.534 824.972, 213.397 824.936, 213.729 824.604 C 214.061 824.272, 213.471 824.036, 212.417 824.079 C 211.252 824.127, 211.015 824.364, 211.813 824.683 M 352.250 824.689 C 353.212 824.941, 354.788 824.941, 355.750 824.689 C 356.712 824.438, 355.925 824.232, 354 824.232 C 352.075 824.232, 351.288 824.438, 352.250 824.689 M 740.500 825 C 738.592 825.820, 738.603 825.863, 740.750 825.930 C 741.987 825.968, 743 825.550, 743 825 C 743 824.450, 742.888 824.032, 742.750 824.070 C 742.612 824.109, 741.600 824.527, 740.500 825 M 530.350 882.187 C 530.688 883.243, 530.255 884.042, 529.195 884.321 C 527.986 884.640, 528.146 884.801, 529.750 884.884 C 532.229 885.012, 532.523 884.269, 530.890 882 C 529.969 880.719, 529.890 880.746, 530.350 882.187 M 624 882.941 C 624 883.459, 624.445 884.157, 624.989 884.493 C 625.555 884.843, 625.723 884.442, 625.382 883.552 C 624.717 881.820, 624 881.503, 624 882.941 M 598.333 897.333 C 598.333 898.067, 598.926 898.667, 599.651 898.667 C 600.635 898.667, 600.689 898.330, 599.862 897.333 C 599.253 896.600, 598.660 896, 598.544 896 C 598.428 896, 598.333 896.600, 598.333 897.333 M 525.490 914.016 C 525.144 914.575, 524.373 914.731, 523.776 914.362 C 523.113 913.952, 522.980 914.159, 523.435 914.894 C 524.106 915.980, 527 914.749, 527 913.378 C 527 912.639, 526.108 913.016, 525.490 914.016" stroke="none" fill="#C9A844" fill-rule="evenodd"/>
</svg>
