<svg xmlns="http://www.w3.org/2000/svg" viewBox="0 0 1024 1024">
	<path d="M 510 104.240 C 507.525 104.755, 505.072 105.587, 504.550 106.088 C 504.028 106.590, 502.893 107, 502.028 107 C 496.589 107, 487.669 120.024, 487.645 128 C 487.630 132.826, 489.937 138.640, 491.724 138.281 C 492.323 138.161, 492.698 138.836, 492.556 139.781 C 492.202 142.139, 496.393 147.416, 500.829 150.198 C 504.456 152.472, 504.965 152.506, 543 153 L 581.500 153.500 582.032 191 C 582.638 233.737, 582.679 233.950, 591.535 239.815 C 599.171 244.873, 602.917 245.155, 658 244.813 L 708.500 244.500 714.269 240.750 C 719.118 237.599, 719.948 236.640, 719.471 234.740 C 719.097 233.250, 719.601 231.732, 720.952 230.282 C 722.078 229.073, 723 227.390, 723 226.542 C 723 225.694, 723.450 225, 724 225 C 727.331 225, 724.050 209.593, 720.115 206.758 C 719.154 206.066, 718.075 204.713, 717.716 203.750 C 717.357 202.787, 716.175 202, 715.090 202 C 714.006 202, 712.869 201.597, 712.564 201.104 C 712.259 200.611, 710.209 199.268, 708.007 198.121 C 704.162 196.116, 702.632 196.038, 669.078 196.123 C 649.868 196.171, 633.667 195.912, 633.075 195.547 C 632.341 195.093, 632 183.642, 632 159.430 C 632 125.830, 631.893 123.751, 629.960 119.638 C 627.262 113.899, 622.165 108.724, 619.815 109.338 C 618.565 109.665, 618 109.260, 618 108.036 C 618 104.500, 611.457 103.986, 562 103.638 C 534.890 103.447, 512.568 103.706, 510 104.240 M 411.439 121.326 C 409.755 121.972, 407.307 123.513, 406 124.750 C 404.693 125.987, 403.102 127, 402.466 127 C 400.907 127, 398 130.312, 398 132.088 C 398 132.875, 397.114 134.072, 396.031 134.748 C 392.570 136.910, 390.652 146.075, 391.386 156.950 C 391.740 162.203, 392.040 182.704, 392.053 202.508 C 392.071 231.791, 392.341 238.982, 393.498 241.008 C 394.281 242.379, 395.229 244.175, 395.605 245 C 396.936 247.920, 402.418 253, 404.237 253 C 405.251 253, 407.450 254.012, 409.123 255.250 C 412.132 257.475, 412.569 257.503, 448.749 257.750 C 468.871 257.887, 485.596 258.263, 485.917 258.583 C 486.237 258.904, 486.578 274.992, 486.674 294.333 C 486.770 313.675, 487.144 331.300, 487.505 333.500 C 489.945 348.370, 505.368 357.979, 518.492 352.806 C 524.845 350.302, 526.143 349.198, 525.787 346.597 C 525.564 344.966, 525.987 344.551, 527.688 344.727 C 529.425 344.908, 529.792 344.519, 529.470 342.842 C 528.966 340.226, 529.270 340.442, 524.577 339.363 C 522.419 338.867, 520.469 337.908, 520.244 337.231 C 519.645 335.436, 525.461 335.670, 529.174 337.590 C 535.673 340.951, 535.500 342.510, 535.500 280.714 L 535.500 225.500 532.100 220.378 C 529.447 216.381, 527.249 214.512, 522.106 211.878 L 515.514 208.500 479.507 208.500 C 459.703 208.500, 442.940 208.138, 442.256 207.695 C 441.298 207.074, 441.069 199.179, 441.256 173.195 L 441.500 139.500 438.737 133.875 C 433.776 123.772, 420.716 117.769, 411.439 121.326 M 214.306 197.910 C 210.086 199.552, 205 203.306, 205 204.781 C 205 205.217, 205.967 205.647, 207.149 205.736 C 208.331 205.825, 209.708 206.308, 210.209 206.809 C 211.560 208.160, 203.903 209.164, 202.312 207.844 C 198.713 204.857, 195.088 222.432, 198.344 227.080 C 199.255 228.381, 200 230.477, 200 231.739 C 200 234.283, 208.310 242.928, 210.929 243.108 C 211.793 243.167, 213.850 243.218, 215.500 243.220 C 217.150 243.222, 218.950 243.571, 219.500 243.996 C 220.050 244.421, 235.748 244.815, 254.384 244.873 C 278.029 244.946, 288.680 245.320, 289.634 246.111 C 290.747 247.035, 291 254.640, 291 287.187 C 291 333.068, 291.048 333.362, 300.028 342.083 C 306.651 348.515, 308.965 348.737, 366 348.415 C 417.649 348.124, 418.609 348.026, 425.341 342.371 C 433.663 335.380, 436.057 324.648, 431.557 314.510 C 428.542 307.719, 425.473 304, 422.885 304 C 421.913 304, 420.824 303.524, 420.464 302.941 C 420.080 302.320, 418.559 302.158, 416.780 302.548 C 414.854 302.971, 413.976 302.849, 414.369 302.212 C 415.095 301.038, 412.261 299.721, 410.866 300.583 C 410.341 300.907, 409.263 300.633, 408.470 299.975 C 407.393 299.082, 402.774 298.971, 390.264 299.540 C 381.044 299.959, 372.150 300.186, 370.500 300.043 C 365.999 299.654, 361.425 299.631, 351.745 299.949 C 345.863 300.142, 342.499 299.829, 341.495 298.996 C 340.216 297.934, 339.989 291.895, 339.923 257.128 C 339.844 215.209, 339.652 212.958, 335.600 206.500 C 333.628 203.356, 327.792 199, 325.553 199 C 324.833 199, 322.708 198.358, 320.831 197.574 C 315.408 195.308, 220.225 195.609, 214.306 197.910 M 796 196.639 C 790.133 199, 787.722 200.637, 786.430 203.135 C 785.283 205.354, 785.236 206.007, 786.224 206.030 C 786.926 206.047, 786.600 206.564, 785.500 207.178 C 779.084 210.764, 777.691 214.801, 777.903 229.194 C 778.496 269.409, 778.133 290.800, 776.843 291.597 C 776.184 292.004, 759.533 292.298, 739.841 292.250 C 704.337 292.163, 703.997 292.182, 699.221 294.486 C 693.041 297.467, 687 304.050, 687 307.803 C 687 309.341, 686.531 311.069, 685.959 311.641 C 684.443 313.157, 683.586 335.524, 684.795 342 C 685.508 345.815, 685.501 347.889, 684.773 348.769 C 684.085 349.601, 683.951 354.088, 684.384 361.769 C 684.748 368.221, 685.008 373.950, 684.961 374.500 C 684.117 384.401, 684.120 408.439, 684.965 409.458 C 685.553 410.167, 685.744 411.502, 685.390 412.426 C 684.403 414.998, 689.670 426.380, 692.980 428.827 C 701.813 435.358, 721.107 434.274, 724.985 427.029 C 725.563 425.948, 727.059 423.961, 728.308 422.612 C 732.341 418.261, 732.941 412.576, 732.922 378.942 C 732.905 349.163, 733.372 343.124, 735.813 341.616 C 737.168 340.778, 781.790 340.320, 800.399 340.953 C 803.094 341.044, 806.469 340.679, 807.899 340.141 C 809.330 339.603, 811.678 338.907, 813.118 338.595 C 817.475 337.651, 823.697 330.553, 825.448 324.530 C 827.200 318.504, 827.511 309.434, 825.997 308.498 C 825.328 308.085, 825.331 307.250, 826.007 305.987 C 826.649 304.787, 826.984 288.295, 826.924 260.835 C 826.821 213.514, 826.738 212.767, 820.679 204.824 C 815.911 198.572, 802.363 194.079, 796 196.639 M 215.621 299.713 C 215.281 300.052, 213.825 300.456, 212.385 300.609 C 205.554 301.338, 199.185 308.154, 197.656 316.372 C 196.651 321.774, 195.580 379.463, 196.443 381.712 C 196.719 382.432, 196.919 383.303, 196.887 383.649 C 196.855 383.994, 197.430 384.657, 198.165 385.123 C 199.205 385.782, 199.134 385.973, 197.844 385.985 C 196.707 385.995, 196.344 386.601, 196.688 387.915 C 197.839 392.317, 194.693 392.764, 161.150 392.957 C 143.907 393.056, 127.323 393.541, 124.296 394.033 C 115.712 395.430, 106.446 404.142, 104.598 412.552 C 103.366 418.161, 103.024 501.994, 104.196 511 C 105.943 524.423, 111.153 531.135, 122.468 534.540 C 128.277 536.289, 135.712 535.483, 136.493 533.021 C 136.792 532.079, 138.872 530.702, 141.114 529.962 C 143.498 529.175, 146.223 527.263, 147.679 525.354 C 152.565 518.949, 152.945 515.544, 152.932 478.274 C 152.926 459.247, 153.277 443.323, 153.713 442.887 C 154.148 442.452, 170.703 441.962, 190.502 441.798 C 229.340 441.476, 225.881 441.889, 234.943 436.500 C 238.197 434.564, 242.754 428.461, 243.528 425 C 244.853 419.078, 244.907 416.911, 244.948 368 C 244.995 311, 245.101 311.669, 234.765 303.385 C 230.601 300.048, 217.751 297.583, 215.621 299.713 M 600 304.878 C 590.222 308.018, 585.065 313.137, 586.383 318.391 C 586.783 319.983, 586.340 321.287, 584.984 322.515 C 583.072 324.245, 583 325.683, 583 362.136 L 583 399.962 580.750 400.472 C 579.513 400.753, 562.750 401.099, 543.500 401.241 L 508.500 401.500 502.597 404.500 C 496.605 407.546, 495.527 408.888, 491.431 418.417 C 489.492 422.929, 489.127 488.527, 491.031 490.431 C 491.564 490.964, 492 492.367, 492 493.550 C 492 496.552, 497.255 503.487, 501.742 506.407 C 506.650 509.600, 515.197 510.647, 522.041 508.893 C 527.775 507.423, 535 501.384, 535 498.060 C 535 496.992, 535.450 495.840, 536 495.500 C 536.550 495.160, 537 493.334, 537 491.441 C 537 489.548, 537.450 488, 538 488 C 539.321 488, 539.319 469.464, 537.997 466.995 C 537.309 465.708, 537.335 464.911, 538.083 464.449 C 538.781 464.018, 538.952 461.757, 538.561 458.138 C 538.225 455.037, 538.339 451.917, 538.813 451.204 C 539.488 450.189, 547.655 449.865, 576.587 449.704 C 616.763 449.482, 616.724 449.487, 623.770 443.546 C 625.568 442.030, 628.268 438.699, 629.770 436.145 L 632.500 431.500 632.272 381 C 632.038 329.115, 631.631 323, 627.899 315.292 C 623.496 306.196, 610.731 301.431, 600 304.878 M 802.500 392.041 C 797 392.407, 790.967 393.067, 789.094 393.509 C 785.218 394.423, 778 401.105, 778 403.777 C 778 404.755, 777.212 406.668, 776.250 408.027 C 774.683 410.242, 774.531 412.903, 774.801 433.500 C 774.967 446.150, 774.812 462.800, 774.457 470.500 L 773.813 484.500 745.218 484.746 C 723.605 484.932, 716.429 485.298, 715.827 486.246 C 715.199 487.235, 715.027 487.224, 715.015 486.191 C 715.007 485.471, 714.578 485.142, 714.063 485.461 C 713.548 485.779, 710.024 485.527, 706.232 484.901 C 697.303 483.427, 686.158 485.100, 682.193 488.510 L 679.509 490.819 682.254 492.070 C 685.642 493.614, 685.804 495.760, 682.594 496.566 C 681.271 496.898, 679.964 498.031, 679.688 499.085 C 679.413 500.138, 678.497 501, 677.653 501 C 674.920 501, 674.916 499.211, 677.643 497.066 C 680.768 494.608, 680.085 493.185, 676.552 494.794 C 671.945 496.894, 668.760 507.825, 671.070 513.613 C 676.766 527.886, 679.221 530.132, 691.076 531.915 C 699.260 533.146, 798.552 532.912, 805.371 531.645 C 815.121 529.834, 824.201 519.601, 819.887 515.287 C 818.496 513.896, 819.604 511.911, 821.389 512.596 C 823.527 513.416, 824 506.229, 824 472.919 C 824 453.355, 824.367 441.891, 825.005 441.497 C 825.558 441.155, 837.948 440.917, 852.537 440.968 C 878.451 441.058, 885.339 440.431, 888.205 437.724 C 888.917 437.051, 890.758 435.851, 892.295 435.057 C 900.597 430.771, 905.223 417.437, 901.439 408.697 C 898.951 402.952, 893.258 396, 891.040 396 C 890.036 396, 888.979 395.388, 888.692 394.640 C 887.545 391.651, 879.434 390.998, 845.807 391.189 C 827.488 391.293, 808 391.676, 802.500 392.041 M 325.512 395.821 C 325.281 396.052, 322.877 396.360, 320.169 396.506 C 311.973 396.949, 305.230 401.853, 300.655 410.700 C 297.379 417.036, 299.492 433, 303.607 433 C 304.476 433, 305.401 433.788, 305.663 434.750 C 305.924 435.712, 308.210 438.075, 310.742 440 L 315.347 443.500 353.775 443.651 C 374.910 443.735, 392.574 444.185, 393.027 444.651 C 393.481 445.118, 394.021 455.625, 394.228 468 C 394.631 492.129, 395.608 497, 400.042 497 C 401.323 497, 401.749 497.490, 401.357 498.513 C 399.542 503.242, 413.344 509.064, 421.287 506.920 C 423.604 506.294, 426.625 505.579, 428 505.331 C 434.725 504.117, 439.780 498.764, 441.242 491.312 C 441.761 488.665, 442.381 470.615, 442.619 451.199 L 443.053 415.898 440.039 409.581 C 436.675 402.533, 436.508 402.356, 429.500 398.355 L 424.500 395.500 375.216 395.451 C 348.109 395.424, 325.743 395.591, 325.512 395.821 M 883.300 492.484 C 880.454 494.400, 877.045 497.438, 875.723 499.234 C 870.560 506.250, 870.478 506.993, 870.803 543.546 C 871.005 566.282, 870.746 578.539, 870.022 580.441 L 868.939 583.290 836.442 582.647 C 815.193 582.227, 802.336 582.364, 799.297 583.046 C 790.331 585.055, 781.151 593.954, 779.634 602.107 C 778.681 607.227, 778.570 697.276, 779.507 704.469 C 781.406 719.039, 789.759 725.765, 804.341 724.465 C 815.663 723.456, 823.193 719.042, 824.567 712.609 C 824.932 710.899, 825.589 709.050, 826.027 708.500 C 827.232 706.987, 827.297 705.106, 827.402 668.802 C 827.473 644.491, 827.826 634.777, 828.672 633.930 C 829.517 633.083, 838.160 632.759, 859.672 632.768 C 890.883 632.780, 901.507 631.746, 906.969 628.165 C 908.366 627.249, 910.348 626.038, 911.374 625.474 C 912.399 624.909, 914.647 622.502, 916.369 620.125 L 919.500 615.802 919.500 560.554 C 919.500 515.018, 919.257 505.014, 918.118 503.642 C 917.358 502.727, 915.970 500.520, 915.032 498.739 C 912.286 493.521, 903.083 489.063, 894.987 489.028 C 889.181 489.003, 887.911 489.379, 883.300 492.484 M 268.209 491.621 C 267.521 492.358, 266.967 493.195, 266.979 493.480 C 267.052 495.292, 266.763 495.226, 265.969 493.250 C 265.075 491.025, 264.847 491, 245.699 491 C 235.048 491, 225.996 491.337, 225.584 491.750 C 225.172 492.163, 222.509 492.543, 219.667 492.595 C 213.385 492.711, 208.356 495.347, 205.985 499.767 C 205.038 501.533, 203.715 503.638, 203.046 504.445 C 202.376 505.252, 202.089 506.335, 202.409 506.852 C 202.728 507.369, 202.320 509.076, 201.501 510.646 C 200.268 513.010, 200.011 519.380, 200.006 547.781 C 200.001 574.284, 199.716 582.170, 198.750 582.534 C 198.063 582.793, 184.450 583.116, 168.500 583.252 L 139.500 583.500 133.289 587.275 C 127.035 591.076, 124 594.219, 124 596.894 C 124 597.691, 123.266 599.154, 122.368 600.146 C 120.208 602.533, 120.239 612.076, 122.418 615.186 C 123.288 616.428, 124 618.188, 124 619.095 C 124 621.872, 132.406 628.732, 138.155 630.646 C 144.815 632.863, 220.400 634.013, 227.500 632.005 C 236.488 629.463, 240.866 626.316, 245.593 619 L 248.500 614.500 248.808 578 C 248.980 557.642, 249.522 541.090, 250.034 540.574 C 250.566 540.037, 268.731 539.617, 293.226 539.574 C 335.007 539.501, 335.549 539.474, 339.684 537.263 C 343.647 535.145, 347.484 531.151, 346.501 530.168 C 346.252 529.919, 345.382 530.268, 344.568 530.944 C 341.690 533.332, 337.904 528.239, 340.573 525.569 C 342.672 523.471, 343.344 523.586, 344.513 526.244 C 345.835 529.250, 349.056 529.930, 348.301 527.043 C 347.880 525.434, 348.122 525.110, 349.385 525.594 C 351.600 526.444, 354 520.557, 354 514.274 C 354 501.922, 343.956 491.986, 331.389 491.907 C 312.519 491.788, 274.891 491.008, 272.480 490.686 C 270.757 490.455, 268.923 490.857, 268.209 491.621 M 594.116 507.180 C 587.665 510.507, 582.468 516.935, 581.462 522.832 C 580.708 527.251, 580.321 571.683, 580.931 583.827 C 581.244 590.056, 581.122 595.826, 580.660 596.648 C 578.062 601.273, 584.793 620.500, 589.010 620.500 C 589.830 620.500, 591.175 621.304, 592 622.286 C 594.681 625.478, 603.428 626.989, 616.017 626.436 C 622.332 626.158, 628.625 625.948, 630 625.968 C 653.947 626.323, 698.466 626.093, 701.500 625.598 C 703.700 625.239, 706.930 624.781, 708.677 624.579 C 712.946 624.087, 718.102 619.986, 720.794 614.945 C 722.975 610.857, 722.977 610.807, 721 610.290 C 719.900 610.002, 719 609.353, 719 608.848 C 719 608.334, 719.862 608.391, 720.958 608.978 C 723.466 610.320, 725.009 607.761, 724.978 602.316 C 724.931 594.130, 718.112 584.677, 709.500 580.859 C 703.699 578.288, 691.343 577.828, 689.919 580.131 C 689.255 581.205, 688.425 581.185, 685.305 580.018 C 682.400 578.931, 675.583 578.583, 656.500 578.547 C 642.750 578.521, 630.998 578.173, 630.385 577.774 C 628.501 576.549, 626.657 565.119, 628.068 563.418 C 629.794 561.338, 628.630 526.193, 626.617 519.630 C 625.161 514.881, 621.640 510, 619.670 510 C 619.130 510, 617.247 508.901, 615.485 507.557 C 613.507 506.048, 611.507 505.316, 610.254 505.644 C 609.138 505.936, 607.923 505.685, 607.554 505.087 C 606.298 503.056, 600.301 503.990, 594.116 507.180 M 428.660 565 C 410.376 565.461, 408.689 565.657, 407.160 567.500 C 406.226 568.625, 404.574 569.368, 403.383 569.198 C 400.871 568.839, 396.560 573.527, 393.908 579.500 C 392.279 583.167, 392.115 588.409, 391.932 642.500 C 391.822 674.950, 392.095 702.400, 392.538 703.500 C 397.814 716.596, 409.367 723.319, 422.500 720.938 C 428.406 719.867, 438.246 710.374, 440.002 704.054 C 440.578 701.979, 441.004 682.604, 441.026 657.500 C 441.068 609.879, 441.090 609.713, 447.131 612.397 C 450.576 613.929, 516.194 612.484, 520.476 610.783 C 526.276 608.477, 533.436 601.095, 534.681 596.135 C 535.776 591.772, 534.183 578.122, 532.280 575.554 C 528.612 570.606, 520.070 566.126, 513.043 565.465 C 504.387 564.651, 453.621 564.371, 428.660 565 M 307.500 592.057 C 297.318 597.183, 295.133 599.119, 294.785 603.325 C 294.663 604.796, 294.264 606, 293.899 606 C 293.177 606, 292.001 609.027, 291.180 613 C 290.896 614.375, 290.580 630.224, 290.479 648.220 C 290.346 671.890, 289.965 681.338, 289.100 682.380 C 288.087 683.600, 283.111 683.734, 256.562 683.258 C 223.416 682.665, 216.386 683.232, 208.775 687.115 C 206.328 688.363, 205 689.737, 205 691.020 C 205 692.305, 204.327 693, 203.082 693 C 201.946 693, 200.212 694.530, 198.832 696.750 L 196.500 700.500 196.301 751 C 196.064 811.319, 196.338 814.003, 203.422 820.750 C 206.207 823.403, 208.813 825, 210.358 825 C 211.720 825, 213.040 825.562, 213.292 826.250 C 213.648 827.223, 214.033 827.234, 215.024 826.301 C 216.016 825.367, 216.912 825.420, 219.078 826.540 C 221.999 828.051, 226.696 827.630, 230.456 825.521 C 237.906 821.342, 239.044 820.405, 238.637 818.785 C 238.371 817.729, 238.935 816.838, 240.104 816.467 C 244.296 815.137, 244.494 813.244, 244.628 773.289 C 244.699 752.272, 244.996 734.452, 245.290 733.688 C 245.684 732.661, 249.170 732.099, 258.661 731.532 C 275.423 730.530, 276.297 730.529, 298.111 731.470 L 316.723 732.274 322.444 729.654 C 329.565 726.394, 337 718.858, 337 714.900 C 337 713.370, 337.471 711.827, 338.048 711.471 C 338.758 711.031, 339.047 694.552, 338.944 660.181 C 338.777 603.991, 338.697 603.297, 331.970 599.323 C 330.430 598.414, 328.724 596.690, 328.179 595.493 C 327.489 593.979, 325.387 592.811, 321.278 591.658 C 313.783 589.555, 312.391 589.595, 307.500 592.057 M 508.326 666.035 C 497.764 668.147, 486.448 679.535, 488.497 685.989 C 488.818 687.003, 488.686 688.076, 488.203 688.375 C 487.720 688.673, 487.277 711.098, 487.219 738.209 C 487.109 789.820, 487.665 797.167, 491.796 798.752 C 492.542 799.038, 493.551 800.318, 494.036 801.596 C 496.198 807.282, 511.056 810.671, 529 809.571 C 546.890 808.474, 580.095 808.834, 581.672 810.142 C 582.832 811.105, 583.051 817.227, 582.934 845.411 C 582.843 867.320, 583.182 880.961, 583.882 883.560 C 586.357 892.753, 597.541 901.492, 606.561 901.281 C 613.162 901.126, 621.313 897.651, 624.538 893.617 C 625.909 891.903, 627.488 889.941, 628.047 889.258 C 632.664 883.619, 632.772 882.192, 632.528 829.948 C 632.302 781.419, 632.257 780.421, 630.128 776.250 C 628.935 773.913, 627.549 772, 627.047 772 C 626.545 772, 625.854 771.115, 625.510 770.032 C 624.855 767.967, 617.848 762.771, 613.844 761.380 C 612.555 760.933, 594.625 760.552, 574 760.533 L 536.500 760.500 536.390 723.500 C 536.268 682.427, 536.091 681.078, 529.906 674.188 C 523.819 667.407, 516.081 664.484, 508.326 666.035 M 609.500 673.627 C 604.095 674.857, 597.991 678.398, 598.502 680.007 C 598.881 681.201, 598.443 681.639, 596.932 681.581 C 592.908 681.426, 589.837 689.148, 590.194 698.527 C 590.479 706.004, 590.756 706.903, 594.244 711.653 C 600.699 720.444, 604.405 721.101, 647.790 721.149 L 682.121 721.187 682.994 723.485 C 683.475 724.749, 683.626 735.394, 683.331 747.141 C 682.993 760.598, 683.185 770.165, 683.852 773 C 684.506 775.784, 684.548 777.626, 683.963 777.831 C 683.384 778.033, 683.418 778.913, 684.051 780.095 C 684.765 781.429, 684.764 783.189, 684.049 785.765 C 682.070 792.888, 682.737 806.349, 685.363 812.286 C 687.802 817.801, 694.049 824, 697.169 824 C 698.111 824, 699.156 824.443, 699.491 824.985 C 699.825 825.526, 701.114 825.885, 702.355 825.783 C 703.595 825.680, 706.024 826.182, 707.752 826.897 C 712.021 828.666, 752.158 826.952, 749.206 825.127 C 748.563 824.730, 748.451 823.889, 748.934 823.106 C 749.600 822.030, 750.329 822.175, 752.632 823.841 C 756.724 826.803, 769.193 828.135, 789.598 827.790 C 802.039 827.579, 807.134 827.136, 808.304 826.164 C 809.189 825.429, 810.410 825.136, 811.019 825.512 C 812.567 826.468, 816.221 822.986, 815.127 821.598 C 813.858 819.990, 812.860 813.529, 813.587 811.634 C 814.343 809.663, 816 809.465, 816 811.345 C 816 813.287, 819.318 816, 821.693 816 C 826.084 816, 828.800 799.400, 825.027 795.627 C 824.462 795.062, 824 793.806, 824 792.835 C 824 790.501, 818.500 784.317, 814.602 782.267 C 811.247 780.503, 799.581 780.033, 762.500 780.170 C 731.823 780.283, 733.485 780.644, 732.523 773.668 C 732.206 771.376, 731.794 751.725, 731.606 730 C 731.207 683.691, 731.512 685.156, 720.739 677.775 L 714.500 673.500 663 673.336 C 634.675 673.245, 610.600 673.376, 609.500 673.627 M 369.915 779.418 C 369.610 779.724, 357.533 780.039, 343.079 780.119 C 328.624 780.199, 315.017 780.716, 312.842 781.268 C 308.666 782.328, 300 789.969, 300 792.590 C 300 793.377, 299.063 796.016, 297.917 798.453 C 295.166 804.306, 296.561 812.292, 301.273 817.658 C 304.116 820.896, 304.711 821.142, 308.314 820.566 C 311.851 820, 312.199 820.131, 311.748 821.858 C 310.975 824.810, 312.355 826.147, 317.128 827.068 C 322.234 828.055, 340.379 828.288, 341.288 827.378 C 341.630 827.037, 346.993 826.898, 353.205 827.070 C 359.417 827.242, 369.989 827.409, 376.697 827.441 C 383.629 827.475, 389.339 827.944, 389.925 828.528 C 390.591 829.192, 390.980 842.093, 391.026 864.978 C 391.085 895.130, 391.333 900.928, 392.689 903.950 C 394.538 908.069, 403.646 917, 405.998 917 C 406.879 917, 408.163 917.563, 408.850 918.250 C 410.821 920.221, 515.177 920.044, 520 918.061 C 527.892 914.818, 530.732 912.261, 533.905 905.545 C 538.559 895.695, 537.752 889.285, 530.789 880.788 C 523.872 872.346, 521.832 872, 479.033 872 C 450.814 872, 442.007 871.709, 441.223 870.750 C 440.574 869.956, 440.168 856.458, 440.108 833.725 C 440.002 793.013, 440.268 794.459, 431.331 785.842 C 425.307 780.033, 418.613 778.257, 409.192 779.965 C 405.734 780.592, 402.252 780.690, 400.872 780.199 C 398.203 779.248, 370.777 778.556, 369.915 779.418" stroke="none" fill="#C9A844" fill-rule="evenodd"/>
</svg>
