<svg xmlns="http://www.w3.org/2000/svg" viewBox="-35.00 167.00 4996.00 899.00"><path d="M368 290L611 916Q625 952 642.50 965.50Q660 979 674 980L674 1000Q644 998 603.50 997.50Q563 997 522 997Q476 997 435 997.50Q394 998 370 1000L370 980Q421 978 434.50 962.50Q448 947 428 896L368 732L150 732L124 801Q102 856 97.50 891Q93 926 102.50 945Q112 964 133.50 971.50Q155 979 185 980L185 1000Q152 998 122 997.50Q92 997 61 997Q39 997 19.50 997.50Q0 998-15 1000L-15 980Q6 976 28 953Q50 930 71 875L299 290Q315 291 333.50 291Q352 291 368 290M158 712L361 712L262 442L158 712M931 469Q970 469 1002.50 477.50Q1035 486 1056 499Q1082 515 1096.50 538.50Q1111 562 1111 593Q1111 628 1089 650.50Q1067 673 1032 673Q997 673 976 653Q955 633 955 599Q955 567 975 545.50Q995 524 1021 517Q1013 507 997 500Q981 493 961 493Q930 493 906.50 511Q883 529 867 561Q851 593 842.50 636Q834 679 834 730Q834 807 853.50 851Q873 895 903.50 913Q934 931 967 931Q986 931 1008.50 925Q1031 919 1054.50 901Q1078 883 1098 850L1115 856Q1104 893 1079 930Q1054 967 1014 990.50Q974 1014 916 1014Q851 1014 798.50 985.50Q746 957 714.50 897.50Q683 838 683 744Q683 654 715.50 592.50Q748 531 804 500Q860 469 931 469M1407 469Q1446 469 1478.50 477.50Q1511 486 1532 499Q1558 515 1572.50 538.50Q1587 562 1587 593Q1587 628 1565 650.50Q1543 673 1508 673Q1473 673 1452 653Q1431 633 1431 599Q1431 567 1451 545.50Q1471 524 1497 517Q1489 507 1473 500Q1457 493 1437 493Q1406 493 1382.50 511Q1359 529 1343 561Q1327 593 1318.50 636Q1310 679 1310 730Q1310 807 1329.50 851Q1349 895 1379.50 913Q1410 931 1443 931Q1462 931 1484.50 925Q1507 919 1530.50 901Q1554 883 1574 850L1591 856Q1580 893 1555 930Q1530 967 1490 990.50Q1450 1014 1392 1014Q1327 1014 1274.50 985.50Q1222 957 1190.50 897.50Q1159 838 1159 744Q1159 654 1191.50 592.50Q1224 531 1280 500Q1336 469 1407 469M1881 469Q1969 469 2019 521Q2069 573 2069 691L1789 691Q1788 701 1788 711Q1787 724 1787 738Q1787 807 1806.50 850Q1826 893 1856 912.50Q1886 932 1917 932Q1938 932 1960.50 925.50Q1983 919 2006 901.50Q2029 884 2049 852L2067 858Q2055 896 2029 932Q2003 968 1963 991Q1923 1014 1867 1014Q1799 1014 1747 985Q1695 956 1665.50 897Q1636 838 1636 747Q1636 654 1667.50 592Q1699 530 1754.50 499.50Q1810 469 1881 469M1786 672L1943 672Q1944 623 1937 581.50Q1930 540 1915 515Q1900 490 1875 490Q1840 490 1816 534Q1792 576 1786 672M2305 469Q2347 469 2378.50 479.50Q2410 490 2424 500Q2438 509 2447 506Q2461 501 2466 470L2487 470Q2485 498 2484 538.50Q2483 579 2483 646L2462 646Q2457 609 2443 573Q2429 537 2402.50 514Q2376 491 2334 491Q2305 491 2285 507.50Q2265 524 2265 555Q2265 585 2283 607.50Q2301 630 2329.50 650.50Q2358 671 2389 694Q2422 719 2449 743.50Q2476 768 2492 797Q2508 826 2508 866Q2508 911 2482 944.50Q2456 978 2413.50 996Q2371 1014 2319 1014Q2289 1014 2265.50 1008Q2242 1002 2225 993Q2212 987 2200.50 981.50Q2189 976 2179 972Q2169 969 2161.50 979Q2154 989 2150 1007L2129 1007Q2131 975 2132 929Q2133 883 2133 807L2154 807Q2160 861 2176 902.50Q2192 944 2219.50 967.50Q2247 991 2289 991Q2306 991 2322 984Q2338 977 2348.50 961Q2359 945 2359 920Q2359 876 2330.50 847Q2302 818 2258 784Q2226 758 2197.50 732.50Q2169 707 2151 676.50Q2133 646 2133 607Q2133 562 2157 531Q2181 500 2220.50 484.50Q2260 469 2305 469M2747 469Q2789 469 2820.50 479.50Q2852 490 2866 500Q2880 509 2889 506Q2903 501 2908 470L2929 470Q2927 498 2926 538.50Q2925 579 2925 646L2904 646Q2899 609 2885 573Q2871 537 2844.50 514Q2818 491 2776 491Q2747 491 2727 507.50Q2707 524 2707 555Q2707 585 2725 607.50Q2743 630 2771.50 650.50Q2800 671 2831 694Q2864 719 2891 743.50Q2918 768 2934 797Q2950 826 2950 866Q2950 911 2924 944.50Q2898 978 2855.50 996Q2813 1014 2761 1014Q2731 1014 2707.50 1008Q2684 1002 2667 993Q2654 987 2642.50 981.50Q2631 976 2621 972Q2611 969 2603.50 979Q2596 989 2592 1007L2571 1007Q2573 975 2574 929Q2575 883 2575 807L2596 807Q2602 861 2618 902.50Q2634 944 2661.50 967.50Q2689 991 2731 991Q2748 991 2764 984Q2780 977 2790.50 961Q2801 945 2801 920Q2801 876 2772.50 847Q2744 818 2700 784Q2668 758 2639.50 732.50Q2611 707 2593 676.50Q2575 646 2575 607Q2575 562 2599 531Q2623 500 2662.50 484.50Q2702 469 2747 469M3335 290L3578 916Q3592 952 3609.50 965.50Q3627 979 3641 980L3641 1000Q3611 998 3570.50 997.50Q3530 997 3489 997Q3443 997 3402 997.50Q3361 998 3337 1000L3337 980Q3388 978 3401.50 962.50Q3415 947 3395 896L3335 732L3117 732L3091 801Q3069 856 3064.50 891Q3060 926 3069.50 945Q3079 964 3100.50 971.50Q3122 979 3152 980L3152 1000Q3119 998 3089 997.50Q3059 997 3028 997Q3006 997 2986.50 997.50Q2967 998 2952 1000L2952 980Q2973 976 2995 953Q3017 930 3038 875L3266 290Q3282 291 3300.50 291Q3319 291 3335 290M3125 712L3328 712L3229 442L3125 712M3981 469Q4059 469 4110.50 532.50Q4162 596 4162 728Q4162 832 4130.50 895Q4099 958 4047 986Q3995 1014 3933 1014Q3892 1014 3857 1000Q3838 992 3821 979Q3800 977 3777 980Q3751 984 3729 993.50Q3707 1003 3692 1016L3677 1007Q3681 993 3682.50 979Q3684 965 3684 951L3684 338Q3684 293 3670.50 271.50Q3657 250 3620 250L3620 229Q3652 232 3682 232Q3723 232 3760 228.50Q3797 225 3828 218L3828 564Q3846 522 3881 498Q3924 469 3981 469M3828 599L3828 966Q3840 976 3854 982Q3878 993 3902 993Q3957 993 3984 931Q4011 869 4011 742Q4011 656 4000.50 605.50Q3990 555 3970 533.50Q3950 512 3922 512Q3887 512 3858 540Q3835 563 3828 599M4408 217L4408 907Q4408 949 4422.50 964Q4437 979 4472 979L4472 1000Q4453 999 4415 997.50Q4377 996 4338 996Q4299 996 4259.50 997.50Q4220 999 4200 1000L4200 979Q4235 979 4249.50 964Q4264 949 4264 907L4264 337Q4264 292 4250.50 270.50Q4237 249 4200 249L4200 228Q4232 231 4262 231Q4303 231 4340 227.50Q4377 224 4408 217M4753 469Q4841 469 4891 521Q4941 573 4941 691L4661 691Q4660 701 4660 711Q4659 724 4659 738Q4659 807 4678.50 850Q4698 893 4728 912.50Q4758 932 4789 932Q4810 932 4832.50 925.50Q4855 919 4878 901.50Q4901 884 4921 852L4939 858Q4927 896 4901 932Q4875 968 4835 991Q4795 1014 4739 1014Q4671 1014 4619 985Q4567 956 4537.50 897Q4508 838 4508 747Q4508 654 4539.50 592Q4571 530 4626.50 499.50Q4682 469 4753 469M4658 672L4815 672Q4816 623 4809 581.50Q4802 540 4787 515Q4772 490 4747 490Q4712 490 4688 534Q4664 576 4658 672" fill="#0A1A3A"/></svg>
