<svg xmlns="http://www.w3.org/2000/svg" viewBox="0 0 1920 760">
  <g transform="translate(60 160) scale(0.4297)">
    <path d="M 504.627 104.468 C 482.707 112.282, 481.377 141.790, 502.500 151.647 C 507.439 153.952, 507.930 153.981, 542.679 153.990 C 573.317 153.999, 578.060 154.203, 579.429 155.571 C 580.794 156.937, 581 161.499, 581 190.390 C 581 233.896, 582.907 239.925, 598.089 244.434 C 604.849 246.441, 702.603 246.798, 709.142 244.839 C 727.206 239.427, 731.936 211.935, 716.701 200.899 C 709.102 195.394, 705.915 195, 668.941 195 C 642.371 195, 635.015 194.723, 634.157 193.689 C 633.198 192.534, 632.718 161.229, 633.217 132.460 C 633.421 120.686, 627.537 110.440, 617.780 105.578 C 611.562 102.479, 512.921 101.512, 504.627 104.468 M 407.399 121.906 C 392.168 128.824, 389.993 136.816, 391.053 182 C 391.472 199.875, 391.569 219.450, 391.270 225.500 C 390.084 249.431, 401.634 259.520, 429.500 258.894 C 459.360 258.225, 482.797 258.940, 484.429 260.571 C 485.797 261.940, 486.001 266.679, 486.006 297.321 C 486.012 335.215, 486.226 337.140, 491.277 344.641 C 501.644 360.035, 524.991 357.790, 534.338 340.500 C 536.465 336.564, 536.505 335.653, 536.784 283.623 C 537.209 204.389, 539.594 207.574, 479.800 207.527 C 452.647 207.506, 444.817 207.217, 443.800 206.197 C 442.786 205.181, 442.500 197.691, 442.500 172.197 C 442.500 141.147, 442.395 139.273, 440.412 134.989 C 434.539 122.302, 419.581 116.374, 407.399 121.906 M 215.672 196.433 C 195.930 201.739, 189.735 224.735, 204.162 239.162 C 210.567 245.567, 213.601 245.998, 252.432 246.015 C 272.125 246.024, 287.133 246.430, 288 246.978 C 289.280 247.786, 289.573 253.918, 290 288.712 C 290.785 352.789, 286.808 349.500, 363.500 349.500 C 414.500 349.500, 414.500 349.500, 420.230 346.686 C 437.307 338.300, 439.947 315.570, 425.153 304.286 C 417.907 298.760, 415.857 298.517, 379 298.829 C 350.736 299.068, 345.187 298.882, 343.500 297.638 C 341.571 296.216, 341.482 294.703, 341 254.832 C 340.235 191.590, 344.295 194.963, 269.068 195.067 C 232.591 195.118, 219.298 195.458, 215.672 196.433 M 794.748 196.366 C 787.337 199.131, 780.454 205.982, 778.138 212.899 C 777.371 215.191, 777 228.102, 777 252.527 C 777 281.918, 776.742 288.969, 775.635 289.888 C 774.685 290.676, 763.192 291.094, 737.885 291.260 C 681.569 291.631, 683.773 288.886, 683.224 359.366 C 682.814 411.995, 683.216 417.131, 688.345 424.738 C 697.133 437.770, 716.792 438.112, 727.930 425.427 C 733.356 419.247, 733.395 418.966, 733.966 381.353 C 734.460 348.835, 734.640 346.051, 736.373 344.138 C 738.189 342.133, 739.316 342.063, 773.873 341.786 C 815.940 341.448, 818.637 340.718, 825.733 327.734 C 827.916 323.738, 828.993 225.099, 826.959 215.304 C 824.022 201.155, 807.674 191.543, 794.748 196.366 M 213.821 298.395 C 197.225 302.864, 195.005 309.406, 194.985 353.909 C 194.976 372.384, 194.572 388.127, 194.087 388.893 C 192.599 391.243, 184.618 391.878, 155.799 391.940 C 118.774 392.020, 114.024 393.323, 106.521 405.455 C 103.249 410.747, 101.096 506.965, 104.014 517.500 C 109.402 536.949, 133.068 542.499, 146.852 527.545 C 153.605 520.219, 154 517.534, 154 479.018 C 154 454.204, 154.314 445.086, 155.200 444.200 C 156.087 443.313, 165.397 443, 190.884 443 C 230.242 443, 230.044 443.037, 239.075 434.015 C 246.010 427.088, 246 427.180, 246 369.739 C 246 311.148, 246.103 311.975, 237.888 304.589 C 230.316 297.781, 223.047 295.911, 213.821 298.395 M 600.190 303.479 C 594.583 305.229, 589.877 308.506, 587.053 312.627 C 582.264 319.617, 582.090 321.258, 582.044 360.095 C 582.003 394.246, 581.878 396.801, 580.171 398.345 C 578.547 399.815, 574.647 400, 545.353 400 C 503.608 400, 497.888 401.461, 491.883 413.660 C 488.279 420.980, 488.132 490.943, 491.706 497.624 C 500.650 514.345, 525.181 515.822, 535.066 500.235 C 539.464 493.301, 539.988 490.175, 539.994 470.872 C 539.999 457.951, 540.335 452.967, 541.256 452.202 C 542.057 451.537, 555.363 451.034, 578.006 450.813 C 635.730 450.248, 633.142 453.516, 633.057 381.284 C 632.997 329.789, 632.560 322.854, 628.901 315.296 C 624.185 305.553, 610.970 300.114, 600.190 303.479 M 805 390.962 C 775.533 392.162, 773.559 395.663, 773.894 446.120 C 774.093 476.052, 773.938 479.919, 772.487 481.370 C 770.636 483.221, 768.814 483.296, 720 483.510 C 693.635 483.626, 688.965 483.876, 685.554 485.353 C 665.699 493.952, 664.357 521.132, 683.288 531.249 C 687.496 533.498, 687.561 533.500, 744.385 533.782 C 828.755 534.200, 824.196 537.257, 825 479.712 C 825.424 449.364, 825.728 443.780, 827 442.977 C 827.843 442.445, 839.919 442.024, 854.572 442.015 C 884.540 441.998, 886.958 441.540, 894.916 434.386 C 909.230 421.516, 905.508 400.389, 887.500 392.301 C 883.177 390.359, 837.862 389.624, 805 390.962 M 322.966 395.003 C 302.659 397.457, 292.150 414.574, 300.793 431.118 C 307.486 443.930, 311.703 444.995, 355.799 445.015 C 375.236 445.024, 390.135 445.431, 391 445.977 C 392.228 446.751, 392.598 450.790, 393.039 468.211 C 393.534 487.760, 393.766 489.888, 395.877 494.247 C 403.581 510.157, 424.435 513.660, 436.948 501.147 C 443.665 494.430, 443.870 493.034, 444.091 452.433 C 444.415 392.980, 446.265 394.569, 376.500 394.357 C 350.650 394.278, 326.560 394.569, 322.966 395.003 M 886.355 489.447 C 871.641 495.849, 870.022 501.222, 870.010 543.679 C 870.001 575.496, 869.837 579.020, 868.294 580.563 C 866.740 582.117, 863.941 582.227, 836.992 581.795 C 794.476 581.113, 788.481 582.522, 781.201 594.906 C 778.196 600.017, 776.298 696.281, 778.960 708.557 C 782.628 725.469, 805.921 732.319, 819.689 720.534 C 828.290 713.172, 828.432 712.416, 829 671.212 C 829.421 640.643, 829.733 634.781, 830.979 634.012 C 831.792 633.510, 846.455 633.095, 863.563 633.091 C 906.202 633.080, 915.840 630.041, 919.928 615.321 C 921.400 610.020, 921.382 513.881, 919.908 507.006 C 916.892 492.941, 899.383 483.778, 886.355 489.447 M 217.707 491.094 C 201.531 494.901, 199 502.396, 199 546.482 C 199 570.907, 198.685 579.915, 197.800 580.800 C 196.927 581.673, 189.360 582.002, 170.050 582.006 C 141.294 582.012, 138.645 582.372, 131.354 587.277 C 113.637 599.196, 117.648 625.272, 138.155 631.486 C 151.580 635.553, 226.807 634.660, 235.410 630.331 C 248.648 623.670, 249.448 620.806, 249.797 578.834 C 250.047 548.757, 250.326 542.974, 251.579 541.934 C 252.710 540.996, 262.234 540.753, 291.479 540.917 C 334.843 541.161, 338.456 540.725, 345.900 534.353 C 361.883 520.673, 355.446 494.809, 335.114 491.007 C 328.413 489.754, 223.067 489.832, 217.707 491.094 M 596.125 504.643 C 590.643 506.657, 584.421 512.793, 581.758 518.815 C 578.343 526.535, 578.458 605.090, 581.896 612.757 C 584.447 618.448, 589.268 623.301, 594.927 625.875 C 601.574 628.898, 704.940 628.268, 711.239 625.166 C 730.603 615.630, 730.952 590.628, 711.854 581.085 C 705.681 578, 705.681 578, 670.063 578 C 640.223 578, 634.102 577.760, 632.330 576.519 C 630.288 575.088, 630.202 574.141, 629.800 548.769 C 629.351 520.403, 629.074 518.786, 623.546 512.230 C 616.969 504.430, 605.412 501.233, 596.125 504.643 M 407.627 565.468 C 401.778 567.553, 396.805 572.090, 393.783 578.098 C 390.732 584.165, 389.029 693.715, 391.832 703.596 C 396.754 720.944, 419.447 728.326, 432.534 716.836 C 441.582 708.891, 441.441 709.737, 442 660.332 C 442.275 636.040, 442.874 615.790, 443.331 615.332 C 443.789 614.874, 460.664 614.274, 480.831 613.999 C 521.364 613.444, 521.884 613.365, 528.838 606.699 C 541.694 594.376, 538.805 575.056, 522.919 567.117 C 515.804 563.562, 416.942 562.148, 407.627 565.468 M 307.969 590.498 C 291.634 595.671, 289.028 603.603, 289.012 648.191 C 289.003 673.237, 288.708 681.070, 287.750 681.687 C 287.063 682.129, 270.496 682.493, 250.936 682.496 C 192.803 682.503, 194.723 679.858, 195.199 759.253 C 195.542 816.547, 195.243 814.437, 204.150 822.445 C 212.928 830.337, 225.153 830.817, 235.670 823.680 C 245.786 816.815, 245.901 816.224, 245.956 770.872 C 245.993 741.110, 246.237 735.048, 247.441 734.049 C 248.491 733.178, 258.604 732.805, 284.691 732.676 C 327.532 732.465, 330.658 731.574, 337.483 717.624 C 341.612 709.185, 340.995 610.044, 336.770 602.855 C 330.442 592.092, 318.761 587.080, 307.969 590.498 M 505.332 665.828 C 486.952 672.262, 486.014 675.800, 486.006 738.701 C 485.997 812.643, 484.465 810.698, 542.274 810.176 C 575.173 809.879, 578.339 809.997, 580.090 811.581 C 581.898 813.218, 582 815.106, 582 846.977 C 582 884.486, 582.276 886.458, 588.557 893.795 C 601.533 908.955, 626.945 902.547, 632.262 882.775 C 635.200 871.850, 633.913 781.635, 630.731 775.410 C 623.311 760.896, 620.189 760.003, 576.790 759.985 C 555.702 759.976, 539.872 759.573, 539 759.022 C 537.725 758.217, 537.425 752.414, 537 720.288 C 536.517 683.810, 536.424 682.358, 534.309 678.405 C 528.450 667.457, 516.052 662.075, 505.332 665.828 M 606.951 673.362 C 583.617 679.655, 582.272 713.658, 605.089 720.434 C 609.426 721.722, 616.425 722, 644.490 722 C 671.609 722, 678.998 722.278, 680.469 723.354 C 682.217 724.632, 682.325 727.041, 682.410 766.604 C 682.519 817.403, 683.152 819.734, 698.750 826.801 C 703.759 829.071, 803.499 829.407, 810.868 827.180 C 828.207 821.939, 833.474 798.842, 820.351 785.597 C 814.406 779.597, 813.906 779.528, 773.854 779.194 C 738.399 778.898, 737.149 778.822, 735.354 776.841 C 733.628 774.935, 733.466 771.886, 733 732.647 C 732.242 668.743, 736.093 671.964, 660.568 672.067 C 625.133 672.116, 610.236 672.476, 606.951 673.362 M 339.500 778.873 C 303.982 779.764, 295.006 785.403, 296.175 806.089 C 297.272 825.508, 306.286 828.985, 355.550 828.994 C 379.138 828.998, 387.917 829.317, 388.800 830.200 C 389.686 831.086, 390 840.205, 390 865.022 C 390 906.888, 391.289 911.532, 404.753 918.162 C 412.295 921.876, 514.558 921.830, 522.794 918.108 C 541.784 909.527, 542.657 883.362, 524.254 874.325 C 518.500 871.500, 518.500 871.500, 480.712 871 C 448.586 870.575, 442.783 870.275, 441.978 869 C 441.431 868.134, 441.015 852.923, 440.993 833 C 440.931 775.248, 442.867 776.281, 339.500 778.873" fill="#C9A844" fill-rule="nonzero"/>
  </g>
  <rect x="540" y="95" width="4" height="570" fill="#C9A844"/>
  <g transform="translate(608.83 183.71) scale(0.2522)">
    <path d="M368 290L611 916Q625 952 642.50 965.50Q660 979 674 980L674 1000Q644 998 603.50 997.50Q563 997 522 997Q476 997 435 997.50Q394 998 370 1000L370 980Q421 978 434.50 962.50Q448 947 428 896L368 732L150 732L124 801Q102 856 97.50 891Q93 926 102.50 945Q112 964 133.50 971.50Q155 979 185 980L185 1000Q152 998 122 997.50Q92 997 61 997Q39 997 19.50 997.50Q0 998-15 1000L-15 980Q6 976 28 953Q50 930 71 875L299 290Q315 291 333.50 291Q352 291 368 290M158 712L361 712L262 442L158 712M931 469Q970 469 1002.50 477.50Q1035 486 1056 499Q1082 515 1096.50 538.50Q1111 562 1111 593Q1111 628 1089 650.50Q1067 673 1032 673Q997 673 976 653Q955 633 955 599Q955 567 975 545.50Q995 524 1021 517Q1013 507 997 500Q981 493 961 493Q930 493 906.50 511Q883 529 867 561Q851 593 842.50 636Q834 679 834 730Q834 807 853.50 851Q873 895 903.50 913Q934 931 967 931Q986 931 1008.50 925Q1031 919 1054.50 901Q1078 883 1098 850L1115 856Q1104 893 1079 930Q1054 967 1014 990.50Q974 1014 916 1014Q851 1014 798.50 985.50Q746 957 714.50 897.50Q683 838 683 744Q683 654 715.50 592.50Q748 531 804 500Q860 469 931 469M1407 469Q1446 469 1478.50 477.50Q1511 486 1532 499Q1558 515 1572.50 538.50Q1587 562 1587 593Q1587 628 1565 650.50Q1543 673 1508 673Q1473 673 1452 653Q1431 633 1431 599Q1431 567 1451 545.50Q1471 524 1497 517Q1489 507 1473 500Q1457 493 1437 493Q1406 493 1382.50 511Q1359 529 1343 561Q1327 593 1318.50 636Q1310 679 1310 730Q1310 807 1329.50 851Q1349 895 1379.50 913Q1410 931 1443 931Q1462 931 1484.50 925Q1507 919 1530.50 901Q1554 883 1574 850L1591 856Q1580 893 1555 930Q1530 967 1490 990.50Q1450 1014 1392 1014Q1327 1014 1274.50 985.50Q1222 957 1190.50 897.50Q1159 838 1159 744Q1159 654 1191.50 592.50Q1224 531 1280 500Q1336 469 1407 469M1881 469Q1969 469 2019 521Q2069 573 2069 691L1789 691Q1788 701 1788 711Q1787 724 1787 738Q1787 807 1806.50 850Q1826 893 1856 912.50Q1886 932 1917 932Q1938 932 1960.50 925.50Q1983 919 2006 901.50Q2029 884 2049 852L2067 858Q2055 896 2029 932Q2003 968 1963 991Q1923 1014 1867 1014Q1799 1014 1747 985Q1695 956 1665.50 897Q1636 838 1636 747Q1636 654 1667.50 592Q1699 530 1754.50 499.50Q1810 469 1881 469M1786 672L1943 672Q1944 623 1937 581.50Q1930 540 1915 515Q1900 490 1875 490Q1840 490 1816 534Q1792 576 1786 672M2305 469Q2347 469 2378.50 479.50Q2410 490 2424 500Q2438 509 2447 506Q2461 501 2466 470L2487 470Q2485 498 2484 538.50Q2483 579 2483 646L2462 646Q2457 609 2443 573Q2429 537 2402.50 514Q2376 491 2334 491Q2305 491 2285 507.50Q2265 524 2265 555Q2265 585 2283 607.50Q2301 630 2329.50 650.50Q2358 671 2389 694Q2422 719 2449 743.50Q2476 768 2492 797Q2508 826 2508 866Q2508 911 2482 944.50Q2456 978 2413.50 996Q2371 1014 2319 1014Q2289 1014 2265.50 1008Q2242 1002 2225 993Q2212 987 2200.50 981.50Q2189 976 2179 972Q2169 969 2161.50 979Q2154 989 2150 1007L2129 1007Q2131 975 2132 929Q2133 883 2133 807L2154 807Q2160 861 2176 902.50Q2192 944 2219.50 967.50Q2247 991 2289 991Q2306 991 2322 984Q2338 977 2348.50 961Q2359 945 2359 920Q2359 876 2330.50 847Q2302 818 2258 784Q2226 758 2197.50 732.50Q2169 707 2151 676.50Q2133 646 2133 607Q2133 562 2157 531Q2181 500 2220.50 484.50Q2260 469 2305 469M2747 469Q2789 469 2820.50 479.50Q2852 490 2866 500Q2880 509 2889 506Q2903 501 2908 470L2929 470Q2927 498 2926 538.50Q2925 579 2925 646L2904 646Q2899 609 2885 573Q2871 537 2844.50 514Q2818 491 2776 491Q2747 491 2727 507.50Q2707 524 2707 555Q2707 585 2725 607.50Q2743 630 2771.50 650.50Q2800 671 2831 694Q2864 719 2891 743.50Q2918 768 2934 797Q2950 826 2950 866Q2950 911 2924 944.50Q2898 978 2855.50 996Q2813 1014 2761 1014Q2731 1014 2707.50 1008Q2684 1002 2667 993Q2654 987 2642.50 981.50Q2631 976 2621 972Q2611 969 2603.50 979Q2596 989 2592 1007L2571 1007Q2573 975 2574 929Q2575 883 2575 807L2596 807Q2602 861 2618 902.50Q2634 944 2661.50 967.50Q2689 991 2731 991Q2748 991 2764 984Q2780 977 2790.50 961Q2801 945 2801 920Q2801 876 2772.50 847Q2744 818 2700 784Q2668 758 2639.50 732.50Q2611 707 2593 676.50Q2575 646 2575 607Q2575 562 2599 531Q2623 500 2662.50 484.50Q2702 469 2747 469M3335 290L3578 916Q3592 952 3609.50 965.50Q3627 979 3641 980L3641 1000Q3611 998 3570.50 997.50Q3530 997 3489 997Q3443 997 3402 997.50Q3361 998 3337 1000L3337 980Q3388 978 3401.50 962.50Q3415 947 3395 896L3335 732L3117 732L3091 801Q3069 856 3064.50 891Q3060 926 3069.50 945Q3079 964 3100.50 971.50Q3122 979 3152 980L3152 1000Q3119 998 3089 997.50Q3059 997 3028 997Q3006 997 2986.50 997.50Q2967 998 2952 1000L2952 980Q2973 976 2995 953Q3017 930 3038 875L3266 290Q3282 291 3300.50 291Q3319 291 3335 290M3125 712L3328 712L3229 442L3125 712M3981 469Q4059 469 4110.50 532.50Q4162 596 4162 728Q4162 832 4130.50 895Q4099 958 4047 986Q3995 1014 3933 1014Q3892 1014 3857 1000Q3838 992 3821 979Q3800 977 3777 980Q3751 984 3729 993.50Q3707 1003 3692 1016L3677 1007Q3681 993 3682.50 979Q3684 965 3684 951L3684 338Q3684 293 3670.50 271.50Q3657 250 3620 250L3620 229Q3652 232 3682 232Q3723 232 3760 228.50Q3797 225 3828 218L3828 564Q3846 522 3881 498Q3924 469 3981 469M3828 599L3828 966Q3840 976 3854 982Q3878 993 3902 993Q3957 993 3984 931Q4011 869 4011 742Q4011 656 4000.50 605.50Q3990 555 3970 533.50Q3950 512 3922 512Q3887 512 3858 540Q3835 563 3828 599M4408 217L4408 907Q4408 949 4422.50 964Q4437 979 4472 979L4472 1000Q4453 999 4415 997.50Q4377 996 4338 996Q4299 996 4259.50 997.50Q4220 999 4200 1000L4200 979Q4235 979 4249.50 964Q4264 949 4264 907L4264 337Q4264 292 4250.50 270.50Q4237 249 4200 249L4200 228Q4232 231 4262 231Q4303 231 4340 227.50Q4377 224 4408 217M4753 469Q4841 469 4891 521Q4941 573 4941 691L4661 691Q4660 701 4660 711Q4659 724 4659 738Q4659 807 4678.50 850Q4698 893 4728 912.50Q4758 932 4789 932Q4810 932 4832.50 925.50Q4855 919 4878 901.50Q4901 884 4921 852L4939 858Q4927 896 4901 932Q4875 968 4835 991Q4795 1014 4739 1014Q4671 1014 4619 985Q4567 956 4537.50 897Q4508 838 4508 747Q4508 654 4539.50 592Q4571 530 4626.50 499.50Q4682 469 4753 469M4658 672L4815 672Q4816 623 4809 581.50Q4802 540 4787 515Q4772 490 4747 490Q4712 490 4688 534Q4664 576 4658 672" fill="#0A1A3A"/>
  </g>
  <g transform="translate(840.48 486.23) scale(0.0379)">
    <path d="M314.94 1000L87.89 1000L87.89 272.46L324.22 272.46Q430.66 272.46 506.10 315.92Q581.54 359.38 621.83 440.67Q662.11 521.97 662.11 634.77Q662.11 748.54 621.58 830.32Q581.05 912.11 503.42 956.05Q425.78 1000 314.94 1000M180.66 354.49L180.66 917.97L309.08 917.97Q397.95 917.97 456.30 884.03Q514.65 850.10 543.46 786.62Q572.27 723.14 572.27 634.77Q572.27 547.36 543.70 484.62Q515.14 421.88 458.74 388.18Q402.34 354.49 317.87 354.49L180.66 354.49M1028.32 1011.72Q949.22 1011.72 891.85 976.56Q834.47 941.41 803.47 878.42Q772.46 815.43 772.46 731.45Q772.46 647.46 802.73 583.50Q833.01 519.53 888.43 483.40Q943.85 447.27 1018.07 447.27Q1061.52 447.27 1103.76 461.67Q1146 476.07 1180.42 508.06Q1214.84 540.04 1235.35 592.29Q1255.86 644.53 1255.86 720.21L1255.86 756.84L861.33 756.84Q863.28 809.57 882.32 847.66Q903.32 890.14 941.16 911.87Q979 933.59 1028.81 933.59Q1061.04 933.59 1087.40 924.32Q1113.77 915.04 1132.81 896.24Q1151.86 877.44 1162.11 849.61L1247.07 873.05Q1234.38 914.06 1204.10 945.31Q1173.83 976.56 1129.15 994.14Q1084.47 1011.72 1028.32 1011.72M861.82 682.62L1166.50 682.62Q1163.09 645.51 1150.88 614.26Q1133.79 572.75 1100.59 549.07Q1067.38 525.39 1018.07 525.39Q968.75 525.39 933.59 549.56Q898.44 573.73 879.88 612.30Q864.26 645.51 861.82 682.62M1567.38 1011.72Q1511.23 1011.72 1467.53 995.36Q1423.83 979 1395.51 946.78Q1367.19 914.55 1357.42 867.68L1440.92 847.66Q1452.64 892.58 1485.11 913.57Q1517.58 934.57 1566.41 934.57Q1623.54 934.57 1657.47 910.16Q1691.41 885.74 1691.41 852.05Q1691.41 823.73 1671.63 804.93Q1651.86 786.13 1611.33 776.86L1520.51 755.37Q1446.29 737.79 1410.16 700.93Q1374.02 664.06 1374.02 606.45Q1374.02 559.57 1400.39 523.68Q1426.76 487.79 1472.41 467.53Q1518.07 447.27 1576.17 447.27Q1632.32 447.27 1671.63 464.11Q1710.94 480.96 1735.60 510.50Q1760.25 540.04 1772.46 578.61L1692.87 599.12Q1681.64 569.82 1655.52 545.90Q1629.39 521.97 1576.66 521.97Q1527.83 521.97 1495.36 544.43Q1462.89 566.89 1462.89 601.07Q1462.89 631.35 1484.86 649.66Q1506.84 667.97 1554.69 679.20L1637.21 698.73Q1711.43 716.31 1747.07 753.17Q1782.71 790.04 1782.71 846.19Q1782.71 894.04 1755.62 931.40Q1728.52 968.75 1679.93 990.23Q1631.35 1011.72 1567.38 1011.72M1997.56 1000L1909.67 1000L1909.67 454.10L1997.56 454.10L1997.56 1000M1954.10 364.75Q1929.20 364.75 1911.13 347.66Q1893.07 330.57 1893.07 306.64Q1893.07 282.23 1911.13 265.38Q1929.20 248.54 1954.10 248.54Q1979.49 248.54 1997.56 265.38Q2015.63 282.23 2015.63 306.64Q2015.63 330.57 1997.56 347.66Q1979.49 364.75 1954.10 364.75M2373.05 1215.82Q2312.50 1215.82 2268.31 1200.44Q2224.12 1185.06 2194.82 1159.67Q2165.53 1134.28 2148.44 1104.49L2219.73 1058.59Q2231.45 1074.22 2248.78 1093.26Q2266.11 1112.30 2295.65 1125.73Q2325.20 1139.16 2373.05 1139.16Q2438.48 1139.16 2480.71 1107.91Q2522.95 1076.66 2522.95 1009.28L2522.95 899.90L2514.65 899.90Q2505.37 915.53 2488.53 937.01Q2471.68 958.50 2440.19 974.85Q2408.69 991.21 2355.96 991.21Q2290.53 991.21 2238.28 960.21Q2186.04 929.20 2155.76 869.63Q2125.49 810.06 2125.49 724.61Q2125.49 640.14 2155.27 577.88Q2185.06 515.63 2237.55 481.45Q2290.04 447.27 2357.91 447.27Q2410.64 447.27 2442.14 464.60Q2473.63 481.93 2490.72 504.39Q2507.81 526.86 2517.09 541.50L2525.39 541.50L2525.39 454.10L2610.84 454.10L2610.84 1014.16Q2610.84 1084.47 2579.10 1129.15Q2547.36 1173.83 2493.41 1194.82Q2439.45 1215.82 2373.05 1215.82M2370.61 913.09Q2420.41 913.09 2454.59 890.38Q2488.77 867.68 2506.35 824.95Q2523.93 782.23 2523.93 722.66Q2523.93 664.55 2506.59 620.36Q2489.26 576.17 2455.08 551.03Q2420.90 525.88 2370.61 525.88Q2318.85 525.88 2284.18 552.49Q2249.51 579.10 2232.18 623.54Q2214.84 667.97 2214.84 722.66Q2214.84 778.81 2232.42 821.78Q2250 864.75 2284.67 888.92Q2319.34 913.09 2370.61 913.09M2853.03 672.85L2853.03 1000L2765.14 1000L2765.14 454.10L2849.61 454.10L2850.10 555.18Q2873.05 503.91 2909.18 479Q2955.08 447.27 3017.09 447.27Q3072.27 447.27 3113.77 469.97Q3155.27 492.68 3178.47 538.33Q3201.66 583.98 3201.66 653.32L3201.66 1000L3113.77 1000L3113.77 660.64Q3113.77 597.66 3080.81 562.01Q3047.85 526.37 2990.72 526.37Q2951.66 526.37 2920.41 543.46Q2889.16 560.55 2871.09 593.26Q2853.03 625.98 2853.03 672.85M3585.45 1011.72Q3506.35 1011.72 3448.97 976.56Q3391.60 941.41 3360.60 878.42Q3329.59 815.43 3329.59 731.45Q3329.59 647.46 3359.86 583.50Q3390.14 519.53 3445.56 483.40Q3500.98 447.27 3575.20 447.27Q3618.65 447.27 3660.89 461.67Q3703.13 476.07 3737.55 508.06Q3771.97 540.04 3792.48 592.29Q3812.99 644.53 3812.99 720.21L3812.99 756.84L3418.46 756.84Q3420.41 809.57 3439.45 847.66Q3460.45 890.14 3498.29 911.87Q3536.13 933.59 3585.94 933.59Q3618.16 933.59 3644.53 924.32Q3670.90 915.04 3689.94 896.24Q3708.98 877.44 3719.24 849.61L3804.20 873.05Q3791.50 914.06 3761.23 945.31Q3730.96 976.56 3686.28 994.14Q3641.60 1011.72 3585.45 1011.72M3418.95 682.62L3723.63 682.62Q3720.21 645.51 3708.01 614.26Q3690.92 572.75 3657.71 549.07Q3624.51 525.39 3575.20 525.39Q3525.88 525.39 3490.72 549.56Q3455.57 573.73 3437.01 612.30Q3421.39 645.51 3418.95 682.62M4143.55 1011.72Q4075.68 1011.72 4023.44 977.05Q3971.19 942.38 3941.89 878.91Q3912.60 815.43 3912.60 728.52Q3912.60 642.09 3942.14 578.86Q3971.68 515.63 4023.93 481.45Q4076.17 447.27 4144.04 447.27Q4197.27 447.27 4228.52 464.84Q4259.77 482.42 4276.61 504.64Q4293.46 526.86 4302.25 541.50L4309.08 541.50L4309.08 272.46L4396.97 272.46L4396.97 1000L4312.01 1000L4312.01 915.53L4302.25 915.53Q4293.46 930.66 4276.12 953.37Q4258.79 976.07 4227.29 993.90Q4195.80 1011.72 4143.55 1011.72M4156.74 933.11Q4206.54 933.11 4240.72 906.98Q4274.90 880.86 4292.48 834.47Q4310.06 788.09 4310.06 727.54Q4310.06 666.99 4292.72 621.83Q4275.39 576.66 4241.21 551.27Q4207.03 525.88 4156.74 525.88Q4104.98 525.88 4070.56 552.73Q4036.13 579.59 4019.04 625.24Q4001.95 670.90 4001.95 727.54Q4001.95 784.67 4019.29 831.30Q4036.62 877.93 4071.29 905.52Q4105.96 933.11 4156.74 933.11M4960.45 454.10L5086.43 454.10L5086.43 529.30L4960.45 529.30L4960.45 1000L4872.56 1000L4872.56 529.30L4765.14 529.30L4765.14 454.10L4872.56 454.10L4872.56 381.35Q4872.56 333.98 4894.78 302.25Q4916.99 270.51 4952.64 254.39Q4988.28 238.28 5027.83 238.28Q5059.08 238.28 5079.59 243.41Q5100.10 248.54 5109.86 252.93L5085.45 328.13Q5078.61 325.68 5067.63 322.75Q5056.64 319.82 5038.09 319.82Q4997.56 319.82 4979 340.58Q4960.45 361.33 4960.45 400.88L4960.45 454.10M5424.80 1011.72Q5350.59 1011.72 5294.68 976.56Q5238.77 941.41 5207.52 877.93Q5176.27 814.45 5176.27 730.47Q5176.27 645.02 5207.52 581.30Q5238.77 517.58 5294.68 482.42Q5350.59 447.27 5424.80 447.27Q5499.51 447.27 5555.66 482.42Q5611.82 517.58 5643.07 581.30Q5674.32 645.02 5674.32 730.47Q5674.32 814.45 5643.07 877.93Q5611.82 941.41 5555.66 976.56Q5499.51 1011.72 5424.80 1011.72M5424.80 933.11Q5479.98 933.11 5515.63 904.79Q5551.27 876.46 5568.36 830.32Q5585.45 784.18 5585.45 730.47Q5585.45 676.27 5568.36 629.64Q5551.27 583.01 5515.63 554.44Q5479.98 525.88 5424.80 525.88Q5370.12 525.88 5334.96 554.44Q5299.80 583.01 5282.71 629.39Q5265.63 675.78 5265.63 730.47Q5265.63 784.18 5282.71 830.32Q5299.80 876.46 5334.96 904.79Q5370.12 933.11 5424.80 933.11M5890.14 1000L5802.25 1000L5802.25 454.10L5887.21 454.10L5887.21 538.09L5893.07 538.09Q5908.20 496.58 5947.02 471.44Q5985.84 446.29 6034.67 446.29Q6044.43 446.29 6057.86 446.78Q6071.29 447.27 6079.10 447.75L6079.10 536.13Q6075.20 535.16 6059.57 533.20Q6043.95 531.25 6026.37 531.25Q5987.30 531.25 5956.30 547.61Q5925.29 563.96 5907.71 592.53Q5890.14 621.09 5890.14 658.20L5890.14 1000M6918.46 1000L6470.70 1000L6470.70 272.46L6914.06 272.46L6914.06 354.49L6563.48 354.49L6563.48 591.80L6890.14 591.80L6890.14 673.83L6563.48 673.83L6563.48 917.97L6918.46 917.97L6918.46 1000M7213.87 1012.70Q7162.11 1012.70 7119.87 993.16Q7077.64 973.63 7052.73 936.04Q7027.83 898.44 7027.83 844.73Q7027.83 797.85 7046.39 768.55Q7064.94 739.26 7095.95 722.41Q7126.95 705.57 7164.55 697.27Q7202.15 688.96 7240.23 684.08Q7289.06 677.73 7319.82 674.32Q7350.59 670.90 7365.48 662.60Q7380.37 654.30 7380.37 634.28L7380.37 631.35Q7380.37 597.17 7367.68 573.49Q7354.98 549.80 7329.59 537.11Q7304.20 524.41 7266.11 524.41Q7227.05 524.41 7199.22 536.62Q7171.39 548.83 7154.05 567.14Q7136.72 585.45 7127.93 604.49L7043.46 576.66Q7064.45 526.86 7100.10 498.78Q7135.74 470.70 7178.71 458.98Q7221.68 447.27 7263.67 447.27Q7291.02 447.27 7325.93 453.86Q7360.84 460.45 7393.31 479.98Q7425.78 499.51 7447.02 537.84Q7468.26 576.17 7468.26 640.14L7468.26 1000L7381.84 1000L7381.84 925.78L7375.98 925.78Q7366.70 944.82 7346.19 965.09Q7325.68 985.35 7292.97 999.02Q7260.25 1012.70 7213.87 1012.70M7229 935.06Q7277.83 935.06 7311.52 916.02Q7345.21 896.97 7362.79 866.46Q7380.37 835.94 7380.37 802.73L7380.37 727.05Q7375 733.40 7356.93 738.53Q7338.87 743.65 7315.67 747.56Q7292.48 751.46 7270.75 754.15Q7249.02 756.84 7236.33 758.30Q7204.59 762.21 7177 771.73Q7149.41 781.25 7132.81 799.56Q7116.21 817.87 7116.21 849.12Q7116.21 877.44 7130.86 896.48Q7145.51 915.53 7170.90 925.29Q7196.29 935.06 7229 935.06M7808.11 1011.72Q7751.95 1011.72 7708.25 995.36Q7664.55 979 7636.23 946.78Q7607.91 914.55 7598.14 867.68L7681.64 847.66Q7693.36 892.58 7725.83 913.57Q7758.30 934.57 7807.13 934.57Q7864.26 934.57 7898.19 910.16Q7932.13 885.74 7932.13 852.05Q7932.13 823.73 7912.35 804.93Q7892.58 786.13 7852.05 776.86L7761.23 755.37Q7687.01 737.79 7650.88 700.93Q7614.75 664.06 7614.75 606.45Q7614.75 559.57 7641.11 523.68Q7667.48 487.79 7713.13 467.53Q7758.79 447.27 7816.89 447.27Q7873.05 447.27 7912.35 464.11Q7951.66 480.96 7976.32 510.50Q8000.98 540.04 8013.18 578.61L7933.59 599.12Q7922.36 569.82 7896.24 545.90Q7870.12 521.97 7817.38 521.97Q7768.55 521.97 7736.08 544.43Q7703.61 566.89 7703.61 601.07Q7703.61 631.35 7725.59 649.66Q7747.56 667.97 7795.41 679.20L7877.93 698.73Q7952.15 716.31 7987.79 753.17Q8023.44 790.04 8023.44 846.19Q8023.44 894.04 7996.34 931.40Q7969.24 968.75 7920.65 990.23Q7872.07 1011.72 7808.11 1011.72M8379.88 1011.72Q8300.78 1011.72 8243.41 976.56Q8186.04 941.41 8155.03 878.42Q8124.02 815.43 8124.02 731.45Q8124.02 647.46 8154.30 583.50Q8184.57 519.53 8239.99 483.40Q8295.41 447.27 8369.63 447.27Q8413.09 447.27 8455.32 461.67Q8497.56 476.07 8531.98 508.06Q8566.41 540.04 8586.91 592.29Q8607.42 644.53 8607.42 720.21L8607.42 756.84L8212.89 756.84Q8214.84 809.57 8233.89 847.66Q8254.88 890.14 8292.72 911.87Q8330.57 933.59 8380.37 933.59Q8412.60 933.59 8438.96 924.32Q8465.33 915.04 8484.38 896.24Q8503.42 877.44 8513.67 849.61L8598.63 873.05Q8585.94 914.06 8555.66 945.31Q8525.39 976.56 8480.71 994.14Q8436.04 1011.72 8379.88 1011.72M8213.38 682.62L8518.07 682.62Q8514.65 645.51 8502.44 614.26Q8485.35 572.75 8452.15 549.07Q8418.95 525.39 8369.63 525.39Q8320.31 525.39 8285.16 549.56Q8250 573.73 8231.45 612.30Q8215.82 645.51 8213.38 682.62M8800.29 1006.35Q8772.95 1006.35 8753.66 987.06Q8734.38 967.77 8734.38 940.43Q8734.38 913.09 8753.66 893.80Q8772.95 874.51 8800.29 874.51Q8827.64 874.51 8846.92 893.80Q8866.21 913.09 8866.21 940.43Q8866.21 967.77 8846.92 987.06Q8827.64 1006.35 8800.29 1006.35M9761.23 1000L9313.48 1000L9313.48 272.46L9756.84 272.46L9756.84 354.49L9406.25 354.49L9406.25 591.80L9732.91 591.80L9732.91 673.83L9406.25 673.83L9406.25 917.97L9761.23 917.97L9761.23 1000M9991.70 672.85L9991.70 1000L9903.81 1000L9903.81 454.10L9988.28 454.10L9988.77 555.18Q10011.72 503.91 10047.85 479Q10093.75 447.27 10155.76 447.27Q10210.94 447.27 10252.44 469.97Q10293.95 492.68 10317.14 538.33Q10340.33 583.98 10340.33 653.32L10340.33 1000L10252.44 1000L10252.44 660.64Q10252.44 597.66 10219.48 562.01Q10186.52 526.37 10129.39 526.37Q10090.33 526.37 10059.08 543.46Q10027.83 560.55 10009.77 593.26Q9991.70 625.98 9991.70 672.85M10715.82 1215.82Q10655.27 1215.82 10611.08 1200.44Q10566.89 1185.06 10537.60 1159.67Q10508.30 1134.28 10491.21 1104.49L10562.50 1058.59Q10574.22 1074.22 10591.55 1093.26Q10608.89 1112.30 10638.43 1125.73Q10667.97 1139.16 10715.82 1139.16Q10781.25 1139.16 10823.49 1107.91Q10865.72 1076.66 10865.72 1009.28L10865.72 899.90L10857.42 899.90Q10848.14 915.53 10831.30 937.01Q10814.45 958.50 10782.96 974.85Q10751.46 991.21 10698.73 991.21Q10633.30 991.21 10581.05 960.21Q10528.81 929.20 10498.54 869.63Q10468.26 810.06 10468.26 724.61Q10468.26 640.14 10498.05 577.88Q10527.83 515.63 10580.32 481.45Q10632.81 447.27 10700.68 447.27Q10753.42 447.27 10784.91 464.60Q10816.41 481.93 10833.50 504.39Q10850.59 526.86 10859.86 541.50L10868.16 541.50L10868.16 454.10L10953.61 454.10L10953.61 1014.16Q10953.61 1084.47 10921.88 1129.15Q10890.14 1173.83 10836.18 1194.82Q10782.23 1215.82 10715.82 1215.82M10713.38 913.09Q10763.18 913.09 10797.36 890.38Q10831.54 867.68 10849.12 824.95Q10866.70 782.23 10866.70 722.66Q10866.70 664.55 10849.37 620.36Q10832.03 576.17 10797.85 551.03Q10763.67 525.88 10713.38 525.88Q10661.62 525.88 10626.95 552.49Q10592.29 579.10 10574.95 623.54Q10557.62 667.97 10557.62 722.66Q10557.62 778.81 10575.20 821.78Q10592.77 864.75 10627.44 888.92Q10662.11 913.09 10713.38 913.09M11195.80 1000L11107.91 1000L11107.91 454.10L11195.80 454.10L11195.80 1000M11152.34 364.75Q11127.44 364.75 11109.38 347.66Q11091.31 330.57 11091.31 306.64Q11091.31 282.23 11109.38 265.38Q11127.44 248.54 11152.34 248.54Q11177.73 248.54 11195.80 265.38Q11213.87 282.23 11213.87 306.64Q11213.87 330.57 11195.80 347.66Q11177.73 364.75 11152.34 364.75M11437.99 672.85L11437.99 1000L11350.10 1000L11350.10 454.10L11434.57 454.10L11435.06 555.18Q11458.01 503.91 11494.14 479Q11540.04 447.27 11602.05 447.27Q11657.23 447.27 11698.73 469.97Q11740.23 492.68 11763.43 538.33Q11786.62 583.98 11786.62 653.32L11786.62 1000L11698.73 1000L11698.73 660.64Q11698.73 597.66 11665.77 562.01Q11632.81 526.37 11575.68 526.37Q11536.62 526.37 11505.37 543.46Q11474.12 560.55 11456.05 593.26Q11437.99 625.98 11437.99 672.85M12170.41 1011.72Q12091.31 1011.72 12033.94 976.56Q11976.56 941.41 11945.56 878.42Q11914.55 815.43 11914.55 731.45Q11914.55 647.46 11944.82 583.50Q11975.10 519.53 12030.52 483.40Q12085.94 447.27 12160.16 447.27Q12203.61 447.27 12245.85 461.67Q12288.09 476.07 12322.51 508.06Q12356.93 540.04 12377.44 592.29Q12397.95 644.53 12397.95 720.21L12397.95 756.84L12003.42 756.84Q12005.37 809.57 12024.41 847.66Q12045.41 890.14 12083.25 911.87Q12121.09 933.59 12170.90 933.59Q12203.13 933.59 12229.49 924.32Q12255.86 915.04 12274.90 896.24Q12293.95 877.44 12304.20 849.61L12389.16 873.05Q12376.46 914.06 12346.19 945.31Q12315.92 976.56 12271.24 994.14Q12226.56 1011.72 12170.41 1011.72M12003.91 682.62L12308.59 682.62Q12305.18 645.51 12292.97 614.26Q12275.88 572.75 12242.68 549.07Q12209.47 525.39 12160.16 525.39Q12110.84 525.39 12075.68 549.56Q12040.53 573.73 12021.97 612.30Q12006.35 645.51 12003.91 682.62M12753.42 1011.72Q12674.32 1011.72 12616.94 976.56Q12559.57 941.41 12528.56 878.42Q12497.56 815.43 12497.56 731.45Q12497.56 647.46 12527.83 583.50Q12558.11 519.53 12613.53 483.40Q12668.95 447.27 12743.16 447.27Q12786.62 447.27 12828.86 461.67Q12871.09 476.07 12905.52 508.06Q12939.94 540.04 12960.45 592.29Q12980.96 644.53 12980.96 720.21L12980.96 756.84L12586.43 756.84Q12588.38 809.57 12607.42 847.66Q12628.42 890.14 12666.26 911.87Q12704.10 933.59 12753.91 933.59Q12786.13 933.59 12812.50 924.32Q12838.87 915.04 12857.91 896.24Q12876.95 877.44 12887.21 849.61L12972.17 873.05Q12959.47 914.06 12929.20 945.31Q12898.93 976.56 12854.25 994.14Q12809.57 1011.72 12753.42 1011.72M12586.91 682.62L12891.60 682.62Q12888.18 645.51 12875.98 614.26Q12858.89 572.75 12825.68 549.07Q12792.48 525.39 12743.16 525.39Q12693.85 525.39 12658.69 549.56Q12623.54 573.73 12604.98 612.30Q12589.36 645.51 12586.91 682.62M13194.82 1000L13106.93 1000L13106.93 454.10L13191.89 454.10L13191.89 538.09L13197.75 538.09Q13212.89 496.58 13251.71 471.44Q13290.53 446.29 13339.36 446.29Q13349.12 446.29 13362.55 446.78Q13375.98 447.27 13383.79 447.75L13383.79 536.13Q13379.88 535.16 13364.26 533.20Q13348.63 531.25 13331.05 531.25Q13291.99 531.25 13260.99 547.61Q13229.98 563.96 13212.40 592.53Q13194.82 621.09 13194.82 658.20L13194.82 1000M13712.89 1011.72Q13633.79 1011.72 13576.42 976.56Q13519.04 941.41 13488.04 878.42Q13457.03 815.43 13457.03 731.45Q13457.03 647.46 13487.30 583.50Q13517.58 519.53 13573 483.40Q13628.42 447.27 13702.64 447.27Q13746.09 447.27 13788.33 461.67Q13830.57 476.07 13864.99 508.06Q13899.41 540.04 13919.92 592.29Q13940.43 644.53 13940.43 720.21L13940.43 756.84L13545.90 756.84Q13547.85 809.57 13566.89 847.66Q13587.89 890.14 13625.73 911.87Q13663.57 933.59 13713.38 933.59Q13745.61 933.59 13771.97 924.32Q13798.34 915.04 13817.38 896.24Q13836.43 877.44 13846.68 849.61L13931.64 873.05Q13918.95 914.06 13888.67 945.31Q13858.40 976.56 13813.72 994.14Q13769.04 1011.72 13712.89 1011.72M13546.39 682.62L13851.07 682.62Q13847.66 645.51 13835.45 614.26Q13818.36 572.75 13785.16 549.07Q13751.95 525.39 13702.64 525.39Q13653.32 525.39 13618.16 549.56Q13583.01 573.73 13564.45 612.30Q13548.83 645.51 13546.39 682.62M14271 1011.72Q14203.13 1011.72 14150.88 977.05Q14098.63 942.38 14069.34 878.91Q14040.04 815.43 14040.04 728.52Q14040.04 642.09 14069.58 578.86Q14099.12 515.63 14151.37 481.45Q14203.61 447.27 14271.48 447.27Q14324.71 447.27 14355.96 464.84Q14387.21 482.42 14404.05 504.64Q14420.90 526.86 14429.69 541.50L14436.52 541.50L14436.52 272.46L14524.41 272.46L14524.41 1000L14439.45 1000L14439.45 915.53L14429.69 915.53Q14420.90 930.66 14403.56 953.37Q14386.23 976.07 14354.74 993.90Q14323.24 1011.72 14271 1011.72M14284.18 933.11Q14333.98 933.11 14368.16 906.98Q14402.34 880.86 14419.92 834.47Q14437.50 788.09 14437.50 727.54Q14437.50 666.99 14420.17 621.83Q14402.83 576.66 14368.65 551.27Q14334.47 525.88 14284.18 525.88Q14232.42 525.88 14198 552.73Q14163.57 579.59 14146.48 625.24Q14129.39 670.90 14129.39 727.54Q14129.39 784.67 14146.73 831.30Q14164.06 877.93 14198.73 905.52Q14233.40 933.11 14284.18 933.11M15087.89 454.10L15213.87 454.10L15213.87 529.30L15087.89 529.30L15087.89 1000L15000 1000L15000 529.30L14892.58 529.30L14892.58 454.10L15000 454.10L15000 381.35Q15000 333.98 15022.22 302.25Q15044.43 270.51 15080.08 254.39Q15115.72 238.28 15155.27 238.28Q15186.52 238.28 15207.03 243.41Q15227.54 248.54 15237.30 252.93L15212.89 328.13Q15206.05 325.68 15195.07 322.75Q15184.08 319.82 15165.53 319.82Q15125 319.82 15106.45 340.58Q15087.89 361.33 15087.89 400.88L15087.89 454.10M15552.25 1011.72Q15478.03 1011.72 15422.12 976.56Q15366.21 941.41 15334.96 877.93Q15303.71 814.45 15303.71 730.47Q15303.71 645.02 15334.96 581.30Q15366.21 517.58 15422.12 482.42Q15478.03 447.27 15552.25 447.27Q15626.95 447.27 15683.11 482.42Q15739.26 517.58 15770.51 581.30Q15801.76 645.02 15801.76 730.47Q15801.76 814.45 15770.51 877.93Q15739.26 941.41 15683.11 976.56Q15626.95 1011.72 15552.25 1011.72M15552.25 933.11Q15607.42 933.11 15643.07 904.79Q15678.71 876.46 15695.80 830.32Q15712.89 784.18 15712.89 730.47Q15712.89 676.27 15695.80 629.64Q15678.71 583.01 15643.07 554.44Q15607.42 525.88 15552.25 525.88Q15497.56 525.88 15462.40 554.44Q15427.25 583.01 15410.16 629.39Q15393.07 675.78 15393.07 730.47Q15393.07 784.18 15410.16 830.32Q15427.25 876.46 15462.40 904.79Q15497.56 933.11 15552.25 933.11M16017.58 1000L15929.69 1000L15929.69 454.10L16014.65 454.10L16014.65 538.09L16020.51 538.09Q16035.64 496.58 16074.46 471.44Q16113.28 446.29 16162.11 446.29Q16171.88 446.29 16185.30 446.78Q16198.73 447.27 16206.54 447.75L16206.54 536.13Q16202.64 535.16 16187.01 533.20Q16171.39 531.25 16153.81 531.25Q16114.75 531.25 16083.74 547.61Q16052.73 563.96 16035.16 592.53Q16017.58 621.09 16017.58 658.20L16017.58 1000M16831.05 1012.70Q16752.44 1012.70 16694.58 987.30Q16636.72 961.91 16604 916.26Q16571.29 870.61 16566.89 809.57L16662.11 809.57Q16666.02 850.59 16689.94 877.20Q16713.87 903.81 16751.22 916.75Q16788.57 929.69 16831.05 929.69Q16880.37 929.69 16919.68 913.57Q16958.98 897.46 16981.93 868.16Q17004.88 838.87 17004.88 800.29Q17004.88 765.14 16985.11 743.16Q16965.33 721.19 16932.62 707.03Q16899.90 692.87 16860.84 682.13L16772.95 657.23Q16685.06 632.32 16636.23 585.94Q16587.40 539.55 16587.40 467.29Q16587.40 405.76 16620.61 359.62Q16653.81 313.48 16710.45 288.09Q16767.09 262.70 16837.40 262.70Q16909.18 262.70 16964.36 288.09Q17019.53 313.48 17051.51 357.18Q17083.50 400.88 17085.45 456.05L16994.63 456.05Q16988.28 402.83 16943.85 373.78Q16899.41 344.73 16834.47 344.73Q16787.60 344.73 16752.20 360.11Q16716.80 375.49 16697.27 402.10Q16677.73 428.71 16677.73 462.89Q16677.73 500.98 16701.42 524.17Q16725.10 547.36 16757.57 560.30Q16790.04 573.24 16816.41 580.57L16889.16 600.59Q16918.46 608.40 16953.86 622.07Q16989.26 635.74 17021.48 658.45Q17053.71 681.15 17074.46 716.06Q17095.21 750.98 17095.21 801.76Q17095.21 861.33 17064.21 909.18Q17033.20 957.03 16974.12 984.86Q16915.04 1012.70 16831.05 1012.70M17414.06 1006.84Q17358.89 1006.84 17317.14 984.13Q17275.39 961.43 17252.20 915.53Q17229 869.63 17229 800.78L17229 454.10L17316.89 454.10L17316.89 793.46Q17316.89 856.45 17350.10 892.09Q17383.30 927.73 17440.43 927.73Q17479.49 927.73 17510.50 910.64Q17541.50 893.55 17559.57 860.60Q17577.64 827.64 17577.64 781.25L17577.64 454.10L17666.02 454.10L17666.02 1000L17581.05 1000L17581.05 897.95Q17557.62 951.17 17521 975.59Q17474.12 1006.84 17414.06 1006.84M17908.20 1204.10L17820.31 1204.10L17820.31 454.10L17905.27 454.10L17905.27 541.50L17915.04 541.50Q17924.32 526.86 17940.92 504.64Q17957.52 482.42 17988.77 464.84Q18020.02 447.27 18073.24 447.27Q18141.60 447.27 18193.60 481.45Q18245.61 515.63 18275.15 578.86Q18304.69 642.09 18304.69 728.52Q18304.69 815.43 18275.39 878.91Q18246.09 942.38 18194.09 977.05Q18142.09 1011.72 18073.73 1011.72Q18021.97 1011.72 17990.23 993.90Q17958.50 976.07 17941.41 953.37Q17924.32 930.66 17915.04 915.53L17908.20 915.53L17908.20 1204.10M18060.55 933.11Q18111.82 933.11 18146.24 905.52Q18180.66 877.93 18198 831.30Q18215.33 784.67 18215.33 727.54Q18215.33 670.90 18198.24 625.24Q18181.15 579.59 18146.73 552.73Q18112.30 525.88 18060.55 525.88Q18010.25 525.88 17976.07 551.27Q17941.89 576.66 17924.56 621.83Q17907.23 666.99 17907.23 727.54Q17907.23 788.09 17924.80 834.47Q17942.38 880.86 17976.81 906.98Q18011.23 933.11 18060.55 933.11M18520.51 1204.10L18432.62 1204.10L18432.62 454.10L18517.58 454.10L18517.58 541.50L18527.34 541.50Q18536.62 526.86 18553.22 504.64Q18569.82 482.42 18601.07 464.84Q18632.32 447.27 18685.55 447.27Q18753.91 447.27 18805.91 481.45Q18857.91 515.63 18887.45 578.86Q18916.99 642.09 18916.99 728.52Q18916.99 815.43 18887.70 878.91Q18858.40 942.38 18806.40 977.05Q18754.39 1011.72 18686.04 1011.72Q18634.28 1011.72 18602.54 993.90Q18570.80 976.07 18553.71 953.37Q18536.62 930.66 18527.34 915.53L18520.51 915.53L18520.51 1204.10M18672.85 933.11Q18724.12 933.11 18758.54 905.52Q18792.97 877.93 18810.30 831.30Q18827.64 784.67 18827.64 727.54Q18827.64 670.90 18810.55 625.24Q18793.46 579.59 18759.03 552.73Q18724.61 525.88 18672.85 525.88Q18622.56 525.88 18588.38 551.27Q18554.20 576.66 18536.87 621.83Q18519.53 666.99 18519.53 727.54Q18519.53 788.09 18537.11 834.47Q18554.69 880.86 18589.11 906.98Q18623.54 933.11 18672.85 933.11M19267.09 1011.72Q19192.87 1011.72 19136.96 976.56Q19081.05 941.41 19049.80 877.93Q19018.55 814.45 19018.55 730.47Q19018.55 645.02 19049.80 581.30Q19081.05 517.58 19136.96 482.42Q19192.87 447.27 19267.09 447.27Q19341.80 447.27 19397.95 482.42Q19454.10 517.58 19485.35 581.30Q19516.60 645.02 19516.60 730.47Q19516.60 814.45 19485.35 877.93Q19454.10 941.41 19397.95 976.56Q19341.80 1011.72 19267.09 1011.72M19267.09 933.11Q19322.27 933.11 19357.91 904.79Q19393.55 876.46 19410.64 830.32Q19427.73 784.18 19427.73 730.47Q19427.73 676.27 19410.64 629.64Q19393.55 583.01 19357.91 554.44Q19322.27 525.88 19267.09 525.88Q19212.40 525.88 19177.25 554.44Q19142.09 583.01 19125 629.39Q19107.91 675.78 19107.91 730.47Q19107.91 784.18 19125 830.32Q19142.09 876.46 19177.25 904.79Q19212.40 933.11 19267.09 933.11M19732.42 1000L19644.53 1000L19644.53 454.10L19729.49 454.10L19729.49 538.09L19735.35 538.09Q19750.49 496.58 19789.31 471.44Q19828.13 446.29 19876.95 446.29Q19886.72 446.29 19900.15 446.78Q19913.57 447.27 19921.39 447.75L19921.39 536.13Q19917.48 535.16 19901.86 533.20Q19886.23 531.25 19868.65 531.25Q19829.59 531.25 19798.58 547.61Q19767.58 563.96 19750 592.53Q19732.42 621.09 19732.42 658.20L19732.42 1000M20123.54 454.10L20235.84 454.10L20235.84 529.30L20123.54 529.30L20123.54 858.40Q20123.54 895.02 20138.43 911.87Q20153.32 928.71 20187.99 928.71Q20196.29 928.71 20209.23 926.76Q20222.17 924.80 20232.91 922.85L20250.98 997.07Q20237.30 1001.95 20219.97 1004.39Q20202.64 1006.84 20185.55 1006.84Q20114.75 1006.84 20075.20 969.48Q20035.64 932.13 20035.64 865.23L20035.64 529.30L19953.61 529.30L19953.61 454.10L20035.64 454.10L20035.64 324.22L20123.54 324.22L20123.54 454.10M20415.04 1006.35Q20387.70 1006.35 20368.41 987.06Q20349.12 967.77 20349.12 940.43Q20349.12 913.09 20368.41 893.80Q20387.70 874.51 20415.04 874.51Q20442.38 874.51 20461.67 893.80Q20480.96 913.09 20480.96 940.43Q20480.96 967.77 20461.67 987.06Q20442.38 1006.35 20415.04 1006.35" fill="#0A1A3A"/>
  </g>
</svg>
